<?xml version="1.0" encoding="UTF-8" standalone="no"?>
<svg
   width="443.52pt"
   height="443.52pt"
   viewBox="0 0 443.52 443.52"
   version="1.1"
   id="svg27"
   sodipodi:docname="contours-simple.svg"
   inkscape:version="1.4.3 (0d15f75, 2025-12-25)"
   xmlns:inkscape="http://www.inkscape.org/namespaces/inkscape"
   xmlns:sodipodi="http://sodipodi.sourceforge.net/DTD/sodipodi-0.dtd"
   xmlns="http://www.w3.org/2000/svg"
   xmlns:svg="http://www.w3.org/2000/svg"
   xmlns:rdf="http://www.w3.org/1999/02/22-rdf-syntax-ns#"
   xmlns:cc="http://creativecommons.org/ns#"
   xmlns:dc="http://purl.org/dc/elements/1.1/">
  <sodipodi:namedview
     id="namedview27"
     pagecolor="#ffffff"
     bordercolor="#000000"
     borderopacity="0.25"
     inkscape:showpageshadow="2"
     inkscape:pageopacity="0.0"
     inkscape:pagecheckerboard="0"
     inkscape:deskcolor="#d1d1d1"
     inkscape:document-units="pt"
     inkscape:zoom="1.3954168"
     inkscape:cx="272.67839"
     inkscape:cy="264.79544"
     inkscape:window-width="1280"
     inkscape:window-height="619"
     inkscape:window-x="33"
     inkscape:window-y="246"
     inkscape:window-maximized="0"
     inkscape:current-layer="svg27" />
  <metadata
     id="metadata1">
    <rdf:RDF>
      <cc:Work>
        <dc:type
           rdf:resource="http://purl.org/dc/dcmitype/StillImage" />
        <dc:date>2026-02-17T21:32:29.279834</dc:date>
        <dc:format>image/svg+xml</dc:format>
        <dc:creator>
          <cc:Agent>
            <dc:title>Matplotlib v3.10.8, https://matplotlib.org/</dc:title>
          </cc:Agent>
        </dc:creator>
      </cc:Work>
    </rdf:RDF>
  </metadata>
  <defs
     id="defs1">
    <style
       type="text/css"
       id="style1">*{stroke-linejoin: round; stroke-linecap: butt}</style>
  </defs>
  <path
     d="m 0,443.52 c 147.84,0 295.68,0 443.52,0 0,-147.84 0,-295.68 0,-443.52 C 295.68,0 147.84,0 0,0 0,147.84 0,295.68 0,443.52 Z"
     style="fill:#ffffff"
     id="path1" />
  <path
     d="m 170.11726,291.79538 c -13.219,-1.74672 -20.35127,-16.57427 -15.58202,-28.51867 1.79268,-10.12211 3.64501,-20.19289 7.79687,-29.59152 0.59691,-8.74995 -7.28569,-15.95248 -4.51475,-25.08903 -0.172,-10.91383 0.9633,-21.83073 -2.48232,-32.40328 -2.07007,-10.82212 5.28422,-22.21397 16.80726,-22.55616 12.71686,-2.1887 28.50717,-9.19638 38.95118,2.30409 4.22784,5.92579 12.88532,8.65139 17.75457,1.80016 6.4764,-8.0925 18.23402,-7.77158 27.55969,-6.59649 10.32204,3.68658 22.02064,4.79842 31.17133,11.06705 10.97194,7.61024 6.14662,21.66041 3.45502,32.20806 -0.64134,10.5085 -10.27074,18.04485 -10.40198,28.35285 4.3654,11.58087 15.47716,20.8641 14.00335,34.4285 0.5273,12.19831 -13.94591,14.49816 -19.20776,23.4585 -9.61708,9.54995 -24.5882,5.01166 -36.4537,3.54298 -8.23463,-3.21406 -17.48057,-8.35238 -25.84602,-2.13104 -10.0912,6.84493 -22.60115,7.50575 -34.13495,10.2919 -2.96904,0.26175 -5.95886,0.0218 -8.87609,-0.56766"
     clip-path="url(#p2b18ca2a95)"
     style="fill:none;stroke:#000000;stroke-width:0.8"
     id="path17" />
  <path
     d="m 164.04164,295.75966 c -14.2623,-3.20712 -19.22833,-20.0348 -14.12515,-32.48302 2.43502,-10.78535 5.68479,-21.35354 9.52487,-31.62386 -0.39245,-7.97408 -7.49082,-14.47136 -5.41303,-23.05669 0.68312,-9.57313 3.25555,-19.60211 -2.33724,-28.35287 -5.35429,-12.10545 0.7791,-30.19039 15.60852,-30.93909 14.02593,-1.15312 30.41998,-10.03963 42.55964,1.3307 4.44304,4.23519 10.7484,12.30718 16.96342,5.77042 8.24491,-9.61351 22.65182,-11.69725 34.4285,-8.6469 12.68265,5.16021 30.5266,3.62992 37.00283,18.30835 4.40702,12.27003 -3.17008,24.56642 -5.7179,36.4537 -2.51301,8.36793 -14.30651,16.02586 -6.98254,25.20216 7.7802,10.01172 15.88807,21.31433 13.89027,34.76723 -2.15271,11.54886 -15.98583,13.70158 -21.61837,23.06407 -9.1451,9.59778 -22.77881,2.27501 -34.0179,2.94587 -9.76847,-1.41497 -19.45119,-11.89017 -29.13619,-3.97699 -10.65461,7.63774 -24.13519,9.26423 -36.4537,12.75633 -4.78082,0.71515 -9.59215,-0.15577 -14.17603,-1.51941 z"
     clip-path="url(#p2b18ca2a95)"
     style="fill:none;stroke:#000000;stroke-width:0.8"
     id="path18" />
  <path
     d="m 164.04164,302.03984 c -13.98511,-1.14513 -24.09196,-14.92827 -21.2347,-28.63708 2.68323,-14.72239 9.6508,-28.31801 13.87148,-42.52932 -1.31867,-7.95893 -8.00862,-14.75418 -5.75016,-23.52916 1.91001,-9.2185 2.93478,-19.2461 -3.51994,-27.10095 -7.00281,-12.44396 -2.61038,-33.97027 13.81974,-35.76591 11.87162,-0.41149 23.38762,-4.18833 35.21616,-4.28797 10.42394,0.6695 16.15138,10.51355 24.30252,15.31072 8.31057,-1.53842 13.33833,-10.71281 22.27726,-11.81979 14.51938,-5.04959 28.1575,4.02545 42.52931,4.62022 14.4573,1.79869 23.66563,17.57355 18.52269,31.12814 -4.91365,12.37887 -6.72809,26.31832 -16.49755,36.23902 -6.13288,9.28191 6.16597,16.10427 10.126,23.37944 6.31286,9.15843 11.14177,23.51691 4.05055,33.36807 -7.3822,6.7249 -16.29339,11.5564 -22.27727,19.78181 -11.15405,8.80817 -24.219,-1.86275 -36.45375,-1.19798 -9.23146,-1.28246 -18.26631,-11.94188 -27.39324,-4.05016 -11.59075,8.45421 -25.9837,11.5115 -39.43847,15.64112 -4.044,0.5009 -8.17774,0.40053 -12.15063,-0.55022 z"
     clip-path="url(#p2b18ca2a95)"
     style="fill:none;stroke:#000000;stroke-width:0.8"
     id="path19" />
  <path
     d="m 164.04164,307.87087 c -15.0063,0.48335 -29.55692,-12.79922 -26.47925,-28.39251 -0.10649,-18.1725 13.29553,-32.70434 16.40965,-49.8563 -3.10677,-8.07844 -8.51488,-16.33624 -5.3517,-25.52281 4.02313,-10.40288 -2.96067,-19.32761 -7.5997,-27.90637 -1.83044,-11.55821 -3.97945,-26.524 7.82431,-33.75084 10.74661,-6.21217 24.26772,-2.06833 35.86997,-6.09015 10.79018,-2.73651 21.80142,1.25048 28.86309,9.73639 4.41894,6.97971 12.41167,6.86777 17.60288,0.86816 11.19865,-10.28877 27.84272,-11.44116 41.41636,-5.57015 12.77521,2.37827 29.98797,1.27793 35.99531,15.67482 6.4244,14.87074 -4.13794,29.40276 -7.9541,43.43421 -2.61785,8.10146 -12.29542,13.53218 -11.99717,22.27726 8.07242,12.2581 21.95457,22.67769 21.50602,38.94983 3.51629,11.91543 -7.74107,19.35806 -16.49259,24.51781 -6.69466,7.24621 -13.98645,17.7622 -25.53175,14.75386 -10.63856,-4.75206 -22.07465,-6.78829 -33.1992,-9.77754 -6.14091,-5.17509 -14.62682,-5.95022 -20.71234,-0.25925 -11.3081,8.11565 -25.08682,11.77105 -38.01862,16.33764 -4.04101,0.31305 -8.09256,0.81048 -12.15124,0.57598"
     clip-path="url(#p2b18ca2a95)"
     style="fill:none;stroke:#000000;stroke-width:0.8"
     id="path20" />
  <path
     d="m 151.89041,312.06494 c -16.0132,-3.35948 -23.51993,-21.96866 -18.59305,-36.63699 1.59608,-16.53585 13.60908,-29.21441 18.31722,-44.55457 -1.64591,-8.71605 -9.30861,-16.74958 -5.45252,-26.32767 5.05689,-13.92932 -11.63598,-22.78571 -10.05092,-36.4537 -5.06302,-12.25525 -0.87212,-28.92222 12.91045,-33.01324 12.23372,-2.23114 25.06697,-0.40428 37.29725,-3.45658 8.99759,-0.82546 18.75491,0.51628 24.30243,8.5471 4.67915,4.91491 11.93172,12.82068 18.41608,5.64475 8.63116,-6.55741 17.7083,-14.35236 29.41805,-12.41266 11.1591,0.95592 21.68616,6.2193 33.17407,5.6337 16.83666,-0.87472 29.20523,17.69799 23.22511,33.10664 -2.19459,11.63071 -9.06892,21.58727 -13.46679,32.40319 -3.45576,6.74861 -14.78381,14.65981 -7.07856,22.27724 9.04238,10.01442 19.75427,20.1883 21.06345,34.42852 3.96276,10.99542 -3.16229,21.59736 -12.9182,26.32765 -9.91002,5.01055 -13.58694,18.85349 -26.24335,19.31716 -11.86688,0.68294 -20.63805,-9.609 -32.38789,-10.51517 -9.18857,0.41189 -16.74037,-11.34128 -25.60352,-4.75157 -9.04697,6.90455 -19.37278,11.20762 -29.87555,15.36779 -10.69158,5.93863 -24.57767,7.92501 -36.45376,5.06841 z"
     clip-path="url(#p2b18ca2a95)"
     style="fill:none;stroke:#000000;stroke-width:0.8"
     id="path21" />
  <path
     d="m 149.8652,318.03926 c -15.58459,-2.06687 -25.53492,-17.92004 -23.03964,-32.95799 2.03817,-18.90132 11.5938,-35.52172 21.46366,-51.30514 3.42439,-9.18027 -8.13913,-16.72112 -4.83595,-26.42104 5.35347,-13.9115 -10.81197,-22.76344 -10.72774,-36.10244 -4.04331,-11.67617 -7.84676,-27.20949 2.96315,-36.67209 10.46687,-9.91761 26.03153,-4.00991 38.87231,-5.5435 9.19922,-0.6539 19.15129,-2.5054 27.95947,0.72806 8.3063,3.94497 12.24357,16.69414 22.27726,15.98441 10.86657,-4.96457 18.17277,-18.68142 31.62998,-16.4132 12.3694,-1.83544 23.14325,7.37761 35.68519,5.58897 15.05088,-2.76484 31.64534,9.45337 29.52195,25.54812 -0.53652,17.94244 -11.58768,33.13095 -20.20069,48.07768 -4.87904,5.16439 -10.6822,13.79968 -2.69746,19.17601 10.60077,11.22482 21.74665,23.40169 23.14123,39.5995 2.92123,13.00172 -9.00562,21.19403 -18.95334,26.32767 -7.04013,7.05945 -11.7994,18.3114 -23.44631,18.6086 -14.22845,1.60216 -23.95003,-11.88642 -37.66895,-13.54572 -8.39535,-0.70825 -16.11051,-11.49126 -24.12552,-3.72329 -11.97099,8.95752 -26.12446,14.24849 -39.46581,20.68069 -9.36242,1.72708 -18.78075,4.47165 -28.35288,2.36426"
     clip-path="url(#p2b18ca2a95)"
     style="fill:none;stroke:#000000;stroke-width:0.8"
     id="path22" />
  <path
     d="m 141.76438,322.12759 c -13.61117,-3.15209 -21.14551,-17.19616 -19.68481,-30.498 0.78506,-20.87165 10.13379,-40.38035 22.64534,-56.70573 6.00321,-9.45569 -7.02081,-18.16439 -3.40523,-28.35286 2.66059,-13.06789 -12.48462,-20.73142 -11.98393,-33.63394 -4.51845,-13.11607 -10.53404,-30.46314 0.2779,-42.18171 8.35825,-11.43251 22.90985,-4.08157 34.42849,-5.79417 12.49808,1.03272 25.43069,-1.61979 37.60628,1.26532 9.15057,3.24051 12.68201,15.60862 22.36692,16.74916 11.68034,-4.36313 18.21858,-19.73422 32.4108,-17.74314 12.58008,-2.69863 22.65762,8.14874 35.20393,6.23136 12.53397,-1.98701 29.42074,0.10139 33.63844,14.35189 5.17921,19.94012 -5.00272,39.78256 -16.03869,55.80426 -2.59024,7.49671 -13.80074,12.40571 -10.93904,21.15356 9.32683,11.71722 22.12405,21.3032 26.27463,36.45367 5.70526,11.80505 3.29671,29.14801 -10.6583,33.65875 -13.29847,4.1697 -14.95533,24.03135 -30.37808,24.11374 -17.04141,3.30038 -28.30169,-12.64447 -43.72841,-16.1981 -7.13166,-1.8239 -14.67577,-10.136 -21.62213,-3.09541 -12.30649,8.92499 -26.00296,16.0812 -39.96006,21.96118 -11.8217,2.9653 -24.36783,5.21606 -36.45405,2.46017 z"
     clip-path="url(#p2b18ca2a95)"
     style="fill:none;stroke:#000000;stroke-width:0.8"
     id="path23" />
  <path
     d="m 143.78959,328.11248 c -16.45149,-0.35694 -29.57377,-16.76789 -25.86499,-32.9103 -0.26917,-15.39003 3.67037,-31.37129 12.32131,-44.0767 2.45737,-10.3873 19.00202,-17.61431 11.5185,-29.71153 -5.77479,-8.64764 -0.16496,-20.26614 -8.04851,-28.0398 -8.22659,-9.40646 -8.64099,-22.18836 -12.9658,-33.38292 -1.61205,-11.88506 -5.14842,-26.62172 5.70153,-35.38585 9.89129,-10.97841 25.2291,-1.39465 37.59007,-3.7245 12.77064,1.51988 25.93184,-0.36857 38.47891,2.19983 8.51163,3.30674 12.35469,12.84496 20.25205,16.63372 12.32808,-2.33919 16.96421,-19.40091 30.83633,-18.22668 11.26071,-2.82944 21.85146,2.51765 31.94504,6.4607 10.62977,1.23845 21.13464,-4.50817 31.55745,0.22949 15.98315,5.5737 17.40115,25.32528 12.80378,39.1475 -3.15528,19.95723 -17.93517,34.75269 -28.89742,50.56133 0.0291,10.18654 12.37496,14.85311 17.70698,22.52672 9.71969,12.79769 17.62856,30.30263 11.63484,46.20983 -6.06386,10.63239 -21.53286,10.18373 -26.01327,22.27642 -4.32357,10.27213 -15.67755,15.28976 -26.29979,12.55264 -17.5864,-0.42917 -29.15655,-16.4351 -45.37797,-21.26329 -10.4648,-7.76074 -18.60658,5.65037 -27.30217,9.7538 -15.17575,10.18264 -32.39845,18.7027 -51.16371,17.80885 -3.47924,-0.11246 -6.93578,0.54114 -10.4131,0.36056"
     clip-path="url(#p2b18ca2a95)"
     style="fill:none;stroke:#000000;stroke-width:0.8"
     id="path24" />
  <path
     d="m 133.66356,332.23105 c -16.85129,-3.42323 -25.44318,-23.04618 -19.97456,-38.57626 -1.29567,-22.42022 9.66038,-44.03276 24.72683,-60.03323 7.35105,-8.95349 -4.4959,-17.77756 -2.72704,-27.54484 -2.90926,-11.213 -13.45588,-18.99632 -14.99525,-30.98119 -4.6586,-13.86334 -7.71575,-28.83267 -6.5461,-43.45717 3.76188,-12.02859 16.50174,-21.63135 29.29695,-16.94324 20.15602,3.88189 40.94864,2.00378 61.10138,4.96963 8.47897,3.25071 11.12553,15.39076 20.25206,16.50858 10.78151,-4.00186 14.24108,-19.10951 27.2136,-18.62334 12.03444,-2.97608 24.46092,0.4888 34.7491,6.77586 9.29022,1.35523 18.06667,-5.45772 27.616,-2.67328 16.08509,0.90203 25.63149,17.86609 23.32973,32.74348 -2.30303,19.00924 -10.30098,37.2476 -23.79935,51.00727 -4.14471,5.69234 -14.98785,13.35211 -6.61457,20.2998 12.19856,10.33632 24.61298,21.79363 28.62296,37.96274 2.36478,11.12908 4.85654,26.04964 -6.82891,32.98216 -8.14472,4.83075 -18.39949,7.73194 -21.71743,17.79884 -4.56312,11.30065 -18.23805,15.45485 -29.13361,11.2949 -21.27321,0.009 -33.26501,-22.66268 -53.43752,-25.31589 -9.91342,4.81672 -17.69686,13.52641 -27.57163,18.78054 -16.51346,13.1577 -38.61609,14.03162 -58.72544,13.91486 -1.62225,-0.24857 -3.24098,-0.50338 -4.83718,-0.89034"
     clip-path="url(#p2b18ca2a95)"
     style="fill:none;stroke:#000000;stroke-width:0.8"
     id="path25" />
  <path
     d="m 129.61315,338.39659 c -18.86496,-3.2844 -28.26702,-25.84803 -21.28597,-42.7166 0.54761,-11.43223 1.53763,-23.03809 6.72917,-33.56142 5.14513,-11.69135 12.90083,-21.88518 21.42975,-31.2452 5.32429,-7.45038 -4.11739,-14.35451 -3.06846,-22.27726 -3.0516,-11.16838 -13.54562,-18.65526 -15.80668,-30.37808 -5.98624,-14.11733 -7.98307,-29.56647 -10.4975,-44.55452 0.17602,-16.49761 18.30036,-31.9941 34.65136,-24.84231 14.36629,4.89078 29.63727,4.8877 44.55452,5.11018 9.357,2.07312 21.59496,-1.25605 27.12231,9.0072 3.73504,4.45836 8.86398,14.06917 15.407,7.63646 7.16863,-7.61695 13.65439,-17.95213 25.53769,-17.74276 11.55938,-2.34562 23.90671,0.0974 33.19329,7.44951 8.91547,1.49733 17.18222,-5.04201 26.32767,-4.80606 15.86031,-1.15539 29.8162,12.62828 30.06775,28.31324 1.58513,13.64517 -5.07783,26.77422 -9.81569,39.2234 -5.89732,14.05926 -19.22035,22.92505 -26.72887,35.7092 1.67031,8.82008 12.07943,12.56464 17.53622,19.09253 13.77238,11.64661 19.19699,30.75397 19.31863,48.15309 -1.37303,13.57753 -15.78221,17.01353 -25.64726,22.58969 -7.97679,6.58987 -8.29163,20.62319 -20.09472,23.14313 -10.87598,4.25036 -21.65938,-2.7597 -32.40438,-4.27481 -14.75782,-5.24016 -24.15878,-20.24085 -39.3155,-24.26465 -9.06345,2.71153 -15.29863,11.25494 -23.28458,16.26733 -11.98185,9.62343 -26.11019,16.25983 -41.522,17.76342 -10.77326,0.34263 -21.66159,3.05622 -32.40375,1.20529 z"
     clip-path="url(#p2b18ca2a95)"
     style="fill:none;stroke:#000000;stroke-width:0.8"
     id="path26" />
  <path
     clip-path="url(#p2b18ca2a95)"
     style="fill:none;stroke:#000000;stroke-width:0.8"
     id="path27"
     d="" />
  <defs
     id="defs27">
    <clipPath
       id="p2b18ca2a95">
      <rect
         x="0"
         y="-0"
         width="443.52"
         height="443.52"
         id="rect27" />
    </clipPath>
  </defs>
</svg>
