<?xml version="1.0" encoding="UTF-8" standalone="no"?>
<svg
   width="443.52pt"
   height="443.52pt"
   viewBox="0 0 443.52 443.52"
   version="1.1"
   id="svg27"
   sodipodi:docname="contours.svg"
   inkscape:version="1.4.3 (0d15f75, 2025-12-25)"
   xmlns:inkscape="http://www.inkscape.org/namespaces/inkscape"
   xmlns:sodipodi="http://sodipodi.sourceforge.net/DTD/sodipodi-0.dtd"
   xmlns="http://www.w3.org/2000/svg"
   xmlns:svg="http://www.w3.org/2000/svg"
   xmlns:rdf="http://www.w3.org/1999/02/22-rdf-syntax-ns#"
   xmlns:cc="http://creativecommons.org/ns#"
   xmlns:dc="http://purl.org/dc/elements/1.1/">
  <sodipodi:namedview
     id="namedview27"
     pagecolor="#ffffff"
     bordercolor="#000000"
     borderopacity="0.25"
     inkscape:showpageshadow="2"
     inkscape:pageopacity="0.0"
     inkscape:pagecheckerboard="0"
     inkscape:deskcolor="#d1d1d1"
     inkscape:document-units="pt"
     inkscape:zoom="1.9734173"
     inkscape:cx="492.29325"
     inkscape:cy="226.764"
     inkscape:window-width="2560"
     inkscape:window-height="1369"
     inkscape:window-x="-8"
     inkscape:window-y="224"
     inkscape:window-maximized="1"
     inkscape:current-layer="svg27" />
  <metadata
     id="metadata1">
    <rdf:RDF>
      <cc:Work>
        <dc:type
           rdf:resource="http://purl.org/dc/dcmitype/StillImage" />
        <dc:date>2026-02-17T21:32:29.279834</dc:date>
        <dc:format>image/svg+xml</dc:format>
        <dc:creator>
          <cc:Agent>
            <dc:title>Matplotlib v3.10.8, https://matplotlib.org/</dc:title>
          </cc:Agent>
        </dc:creator>
      </cc:Work>
    </rdf:RDF>
  </metadata>
  <defs
     id="defs1">
    <style
       type="text/css"
       id="style1">*{stroke-linejoin: round; stroke-linecap: butt}</style>
  </defs>
  <path
     d="M 0,443.52 H 443.52 V 0 H 0 Z"
     style="fill:#ffffff"
     id="path1" />
  <path
     d="m 216.69699,237.57397 -1.89665,-0.62493 -0.12856,-0.0509 -2.0252,-1.16297 -1.03507,-0.81132 -0.99014,-0.89136 -1.11066,-1.13385 -0.91455,-1.04519 -0.77316,-0.98002 -1.204,-2.0252 -0.048,-0.11903 -0.64076,-1.90618 -0.38577,-2.0252 -0.19972,-2.02521 -0.0593,-2.0252 0.0707,-2.02521 0.21717,-2.0252 0.41334,-2.02521 0.58431,-1.70331 0.13354,-0.32189 1.18638,-2.02521 0.70528,-0.93308 0.96058,-1.09213 1.06463,-1.06705 1.12167,-0.95815 0.90354,-0.68588 2.0252,-1.15094 0.45248,-0.18839 1.57273,-0.5442 2.0252,-0.42746 2.02521,-0.20012 2.0252,-0.063 2.02521,0.0466 2.0252,0.16163 2.02521,0.34592 2.0252,0.6578 0.045,0.0228 1.98025,1.15957 1.0765,0.86564 0.94871,0.86853 1.13014,1.15667 0.89506,1.03515 0.78746,0.99006 1.21777,2.02521 0.02,0.0498 0.65277,1.97542 0.36903,2.02521 0.18527,2.0252 0.0772,2.02521 -0.0203,2.0252 -0.12515,2.02521 -0.3219,2.0252 -0.67024,2.02521 -0.14659,0.26098 -1.13282,1.76422 -0.89239,1.03387 -0.94744,0.99134 -1.07776,1.00733 -1.20726,1.01788 -0.81795,0.60874 -2.02521,1.17415 -0.56431,0.24231 -1.46089,0.50725 -2.02521,0.42792 -2.0252,0.23159 -2.02521,0.0927 -2.0252,-0.0552 -2.02521,-0.1939 z"
     clip-path="url(#p2b18ca2a95)"
     style="fill:none;stroke:#000000;stroke-width:0.8"
     id="path3" />
  <path
     d="m 216.69699,241.16571 -0.81631,-0.16626 -1.2089,-0.26842 -2.0252,-0.75891 -1.67881,-0.99787 -0.3464,-0.22997 -2.02521,-1.76475 -0.0318,-0.0305 -1.99341,-2.00293 -0.0217,-0.0223 -1.80279,-2.02521 -0.20076,-0.2847 -1.10031,-1.74051 -0.78711,-2.0252 -0.13778,-0.63314 -0.27152,-1.39207 -0.19792,-2.0252 -0.0712,-2.02521 -0.0156,-2.0252 0.0631,-2.02521 0.14645,-2.0252 0.27636,-2.02521 0.0704,-0.2846 0.46713,-1.7406 0.82883,-2.02521 0.72924,-1.30943 0.44984,-0.71578 1.57537,-1.97801 0.0417,-0.0472 1.97103,-2.02521 0.0125,-0.0122 2.02521,-1.75073 0.40236,-0.2623 1.62285,-0.93731 2.0252,-0.74337 1.43594,-0.34453 0.58927,-0.12984 2.0252,-0.25003 2.02521,-0.13577 2.0252,-0.0454 2.02521,0.009 2.0252,0.067 2.02521,0.18678 1.6101,0.29844 0.4151,0.0853 2.02521,0.7641 1.88903,1.17579 0.13618,0.0963 2.0252,1.81082 0.12185,0.1181 1.90336,1.89409 0.12649,0.13112 1.81913,2.0252 0.0796,0.1102 1.2144,1.91501 0.77382,2.02521 0.037,0.18959 0.31737,1.83561 0.18622,2.02521 0.0919,2.0252 0.0604,2.02521 0.032,2.0252 -0.0192,2.02521 -0.15119,2.0252 -0.3756,2.02521 -0.14198,0.39962 -0.6856,1.62558 -1.33961,1.9391 -0.0684,0.0861 -1.95684,2.00072 -0.0255,0.0245 -1.99975,1.8253 -0.23665,0.1999 -1.78855,1.36026 -1.09497,0.66495 -0.93024,0.49896 -2.02521,0.82935 -2.0252,0.52597 -1.26337,0.17092 -0.76184,0.098 -2.0252,0.15955 -2.02521,0.0886 -2.0252,0.0413 -2.02521,-0.0388 -2.0252,-0.18237"
     clip-path="url(#p2b18ca2a95)"
     style="fill:none;stroke:#000000;stroke-width:0.8"
     id="path4" />
  <path
     d="m 210.62137,243.42688 -0.77458,-0.40222 -1.25063,-0.76229 -1.64729,-1.26292 -0.37791,-0.33248 -1.81682,-1.69272 -0.20839,-0.20657 -1.72345,-1.81864 -0.30175,-0.33704 -1.26418,-1.68816 -0.76103,-1.25584 -0.37892,-0.76937 -0.71073,-2.02521 -0.40865,-2.0252 -0.20932,-2.02521 -0.11266,-2.0252 -0.0447,-2.02521 0.001,-2.0252 0.0792,-2.02521 0.16466,-2.0252 0.25088,-2.02521 0.36748,-2.0252 0.54517,-2.02521 0.45637,-1.33001 0.26986,-0.6952 1.02808,-2.0252 0.72727,-1.15304 0.65934,-0.87217 1.36586,-1.65487 0.34719,-0.37033 1.67802,-1.68259 0.38928,-0.34262 1.63592,-1.20091 1.45658,-0.82429 0.56863,-0.26969 2.02521,-0.68217 2.0252,-0.4227 2.02521,-0.25117 2.0252,-0.14028 2.02521,-0.0904 2.0252,-0.0295 h 2.02521 l 2.0252,0.0325 2.02521,0.11642 2.0252,0.23851 2.02521,0.4538 2.02521,0.73423 0.65887,0.31041 1.36633,0.78204 1.76598,1.24316 0.25923,0.2255 1.8974,1.79971 0.1278,0.13041 1.70581,1.89479 0.3194,0.36434 1.22187,1.66087 0.80333,1.30255 0.37196,0.72265 0.74451,2.02521 0.42241,2.02521 0.20333,2.0252 0.11473,2.02521 0.0422,2.0252 0.0367,2.02521 0.0444,2.0252 0.009,2.02521 -0.08,2.0252 -0.23741,2.02521 -0.44038,2.0252 -0.76422,2.02521 -0.46703,0.88271 -0.73726,1.1425 -1.28794,1.63613 -0.36669,0.38907 -1.65852,1.61861 -0.46081,0.4066 -1.56439,1.19226 -1.23515,0.83294 -0.79006,0.4614 -2.0252,1.00625 -1.3992,0.55756 -0.62601,0.22902 -2.02521,0.58142 -2.0252,0.29147 -2.02521,0.12907 -2.0252,0.0905 -2.02521,0.1118 -2.0252,0.10709 -2.02521,0.0783 -2.0252,-0.003 -2.02521,-0.14286 -2.0252,-0.37514 z"
     clip-path="url(#p2b18ca2a95)"
     style="fill:none;stroke:#000000;stroke-width:0.8"
     id="path5" />
  <path
     d="m 208.59616,247.16227 -0.22839,-0.0872 -1.79681,-0.79903 -2.02521,-1.18569 -0.0596,-0.0405 -1.96556,-1.57583 -0.46821,-0.44937 -1.557,-1.70505 -0.24659,-0.32016 -1.43898,-2.0252 -0.33963,-0.53796 -0.78518,-1.48725 -0.88988,-2.0252 -0.35015,-0.9897 -0.3377,-1.03551 -0.45792,-2.02521 -0.26312,-2.0252 -0.1188,-2.02521 -0.0508,-2.0252 -0.0179,-2.02521 0.0155,-2.0252 0.0777,-2.02521 0.17866,-2.0252 0.2666,-2.02521 0.32166,-2.0252 0.38613,-1.92193 0.0214,-0.10328 0.5352,-2.02521 0.65777,-2.0252 0.81081,-1.99406 0.0147,-0.0311 1.08525,-2.0252 0.92528,-1.47677 0.39529,-0.54844 1.62992,-1.9738 0.0498,-0.0514 1.97538,-1.72003 0.455,-0.30518 1.57021,-0.88849 2.0252,-0.84117 0.88004,-0.29554 1.14517,-0.34803 2.02521,-0.4371 2.0252,-0.26935 2.02521,-0.12895 2.0252,-0.0565 2.02521,-0.008 2.0252,0.002 2.02521,0.004 2.0252,0.003 2.02521,0.0446 2.0252,0.14426 2.02521,0.30896 2.02521,0.51786 0.62373,0.22388 1.40147,0.52955 2.02521,0.91779 1.0572,0.57786 0.968,0.61637 1.85905,1.40884 0.16616,0.14856 1.9289,1.87664 0.0963,0.109 1.52337,1.91621 0.50184,0.78401 0.68792,1.24119 0.92642,2.02521 0.41086,1.11519 0.30944,0.91001 0.46091,2.02521 0.26231,2.02521 0.13641,2.0252 0.0611,2.02521 0.0114,2.0252 0.0127,2.02521 0.0231,2.0252 0.0181,2.02521 -0.0417,2.0252 -0.11708,2.02521 -0.22765,2.0252 -0.37812,2.02521 -0.53093,1.7091 -0.10968,0.31611 -0.93931,2.0252 -0.97621,1.55722 -0.33812,0.46799 -1.68709,1.85904 -0.17135,0.16616 -1.85385,1.56865 -0.62891,0.45656 -1.3963,0.95188 -1.97296,1.07332 -0.0522,0.0252 -2.02521,0.81602 -2.0252,0.62691 -2.02521,0.4955 -0.3427,0.0616 -1.68251,0.27709 -2.0252,0.14384 -2.02521,0.0544 -2.0252,0.0701 -2.02521,0.13238 -2.0252,0.17263 -2.02521,0.16603 -2.0252,0.10332 -2.02521,0.006 -2.0252,-0.14487 -2.02521,-0.31984 z"
     clip-path="url(#p2b18ca2a95)"
     style="fill:none;stroke:#000000;stroke-width:0.8"
     id="path6" />
  <path
     d="m 208.59616,251.34426 -1.0902,-0.21878 -0.935,-0.21676 -2.02521,-0.70998 -2.0252,-0.94136 -0.27525,-0.15711 -1.74996,-1.14855 -1.04711,-0.87665 -0.97809,-0.95741 -0.92283,-1.0678 -1.10238,-1.5079 -0.33842,-0.5173 -1.06696,-2.02521 -0.61982,-1.48952 -0.20221,-0.53568 -0.69735,-2.02521 -0.62908,-2.0252 -0.49657,-1.91016 -0.0296,-0.11505 -0.36663,-2.02521 -0.16085,-2.0252 -0.0147,-2.02521 0.0318,-2.0252 -5.6e-4,-2.02521 -0.0304,-2.0252 0.0126,-2.02521 0.13968,-2.0252 0.28925,-2.02521 0.12944,-0.66181 0.25772,-1.36339 0.44723,-2.02521 0.49046,-2.02521 0.52734,-2.0252 0.30246,-1.09117 0.27224,-0.93404 0.68597,-2.0252 0.84615,-2.02521 0.22084,-0.43774 0.9338,-1.58746 1.09141,-1.56009 0.37685,-0.46512 1.64835,-1.69369 0.37888,-0.33151 1.64633,-1.16643 1.47818,-0.85878 0.54702,-0.27256 2.02521,-0.77743 2.0252,-0.58635 1.64156,-0.38887 0.38365,-0.0851 2.02521,-0.2889 2.0252,-0.12037 2.02521,0.0243 2.0252,0.0715 2.02521,0.0525 2.0252,0.019 2.02521,-0.0426 2.0252,-0.0817 2.02521,-0.0795 2.0252,0.005 2.02521,0.17599 1.6906,0.34996 0.33461,0.0729 2.0252,0.7017 2.02521,0.86636 0.82266,0.38428 1.20254,0.56747 2.02521,1.03884 0.73038,0.4189 1.29482,0.88399 1.40955,1.14121 0.61566,0.57379 1.40198,1.45142 0.62322,0.75559 0.9316,1.26961 1.09361,1.96594 0.03,0.0593 0.82016,2.0252 0.67415,2.02521 0.50091,1.92297 0.0265,0.10223 0.36245,2.02521 0.13804,2.02521 0.006,2.0252 -0.0899,2.02521 -0.0836,2.0252 -0.0556,2.02521 -0.008,2.0252 0.0239,2.02521 0.0507,2.0252 0.0571,2.02521 0.0188,2.0252 -0.10858,2.02521 -0.33814,1.90806 -0.0234,0.11715 -0.6332,2.0252 -0.89985,2.02521 -0.46877,0.79645 -0.81477,1.22875 -1.21044,1.49223 -0.49991,0.53298 -1.52529,1.49925 -0.59735,0.52595 -1.42786,1.20434 -1.13699,0.82087 -0.88821,0.55898 -2.02521,0.96967 -1.47838,0.49655 -0.54682,0.15777 -2.02521,0.44552 -2.0252,0.33898 -2.02521,0.31957 -2.02521,0.28804 -2.0252,0.21315 -2.02521,0.13822 -1.85935,0.12396 -0.16585,0.0116 -2.02521,0.14468 -2.0252,0.19695 -2.02521,0.1189 -2.0252,0.0619 -2.02521,-0.0134 -2.0252,-0.023 -2.02521,-0.0741 z"
     clip-path="url(#p2b18ca2a95)"
     style="fill:none;stroke:#000000;stroke-width:0.8"
     id="path7" />
  <path
     d="m 200.49534,253.4725 -0.73838,-0.32182 -1.28682,-0.66362 -1.98521,-1.36158 -0.04,-0.0333 -1.99194,-1.99194 -0.0333,-0.0391 -1.50361,-1.9861 -0.5216,-0.82432 -0.6545,-1.20089 -0.89611,-2.0252 -0.4746,-1.42707 -0.17556,-0.59814 -0.492,-2.0252 -0.46919,-2.02521 -0.44027,-2.0252 -0.32299,-2.02521 -0.12132,-2.02521 0.11332,-2.0252 0.21666,-2.02521 0.18073,-2.0252 -0.0105,-2.02521 -0.15143,-2.0252 -0.15723,-2.02521 2.7e-4,-2.0252 0.2401,-2.02521 0.39107,-2.0252 0.48185,-2.02521 0.48666,-2.02521 0.22979,-0.95073 0.2593,-1.07447 0.49951,-2.02521 0.53964,-2.0252 0.60742,-2.02521 0.11934,-0.34072 0.63168,-1.68448 0.93627,-2.02521 0.45726,-0.7898 0.83579,-1.2354 1.18941,-1.34229 0.73183,-0.68292 1.29338,-0.96405 1.7226,-1.06116 0.3026,-0.16596 2.02521,-1.03109 1.84741,-0.82815 0.17779,-0.0792 2.02521,-0.6976 2.0252,-0.50141 2.02521,-0.29402 2.02521,-0.0635 2.0252,0.14625 2.02521,0.27089 2.0252,0.24242 2.02521,0.14068 2.0252,0.008 2.02521,-0.12676 2.0252,-0.2579 2.02521,-0.3055 2.0252,-0.26728 2.02521,-0.0581 2.02521,0.23366 2.0252,0.56571 2.02521,0.82823 0.45308,0.21551 1.57212,0.71691 2.02521,0.87845 1.09176,0.42984 0.93344,0.38383 2.02521,0.95995 1.19881,0.68143 0.82639,0.57507 1.78055,1.45014 0.24466,0.24465 1.52069,1.78055 0.50451,0.72635 0.78175,1.29886 0.9753,2.0252 0.26816,0.70393 0.46324,1.32128 0.57972,2.0252 0.49019,2.02521 0.3583,2.0252 0.13376,1.79793 0.0143,0.22728 -0.0143,0.17769 -0.14835,1.84752 -0.32911,2.0252 -0.37887,2.02521 -0.28201,2.0252 -0.157,2.02521 -0.0463,2.0252 0.0639,2.02521 0.16661,2.0252 0.26654,2.02521 0.31541,2.0252 0.22924,2.02521 -0.0359,2.02521 -0.37367,2.0252 -0.68684,2.02521 -0.62876,1.26912 -0.39941,0.75608 -1.41444,2.02521 -0.21136,0.23993 -1.56942,1.78527 -0.45578,0.47123 -1.49689,1.55398 -0.52832,0.57273 -1.48198,1.45247 -0.54322,0.52201 -2.02521,1.43207 -0.14432,0.0711 -1.88088,0.79247 -2.02521,0.56043 -2.0252,0.35561 -2.02521,0.24116 -0.7081,0.0755 -1.3171,0.13567 -2.02521,0.27821 -2.02521,0.34021 -2.0252,0.34864 -2.02521,0.29903 -2.0252,0.23838 -2.02521,0.17409 -2.0252,0.0758 -2.02521,-0.0712 -2.0252,-0.14991 -2.02521,-0.0964 -2.0252,0.0349 -2.02521,0.16178 -2.02521,0.14082 -2.0252,-0.0286 -2.02521,-0.3167 -2.0252,-0.53794 z"
     clip-path="url(#p2b18ca2a95)"
     style="fill:none;stroke:#000000;stroke-width:0.8"
     id="path8" />
  <path
     d="m 198.47014,257.57404 -1.03147,-0.37294 -0.99374,-0.40632 -2.0252,-1.07677 -0.8111,-0.54212 -1.21411,-0.95368 -1.08796,-1.07153 -0.93725,-1.13584 -0.62464,-0.88936 -1.18471,-2.02521 -0.21585,-0.42265 -0.73464,-1.60255 -0.71947,-2.02521 -0.52987,-2.0252 -0.0412,-0.18816 -0.34667,-1.83705 -0.27875,-2.0252 -0.22587,-2.02521 -0.18199,-2.0252 -0.0878,-2.02521 0.0398,-2.02521 0.18833,-2.0252 0.27744,-2.02521 0.19162,-2.0252 -0.0217,-2.02521 -0.19019,-2.0252 -0.13279,-2.02521 0.0181,-2.0252 0.14774,-2.02521 0.24403,-2.0252 0.29635,-2.02521 0.0624,-0.3451 0.32052,-1.68011 0.39422,-2.0252 0.43785,-2.02521 0.46644,-2.0252 0.40618,-1.69672 0.0805,-0.32849 0.53549,-2.0252 0.65858,-2.02521 0.75058,-1.75823 0.12056,-0.26697 1.15329,-2.02521 0.75136,-1.0293 0.86096,-0.99591 1.16425,-1.0767 1.33728,-0.9485 0.68792,-0.42694 2.02521,-1.02135 1.28174,-0.57692 0.74346,-0.33395 2.02521,-0.90482 2.0252,-0.77221 0.0496,-0.0142 1.9756,-0.56344 2.0252,-0.36495 2.02521,-0.12692 2.02521,0.10028 2.0252,0.33248 2.02521,0.46997 0.66713,0.15258 1.35807,0.25314 2.02521,0.2098 2.0252,0.0168 2.02521,-0.2169 1.41273,-0.26283 0.61247,-0.13566 2.02521,-0.49646 2.0252,-0.38243 2.02521,-0.20589 2.02521,0.0356 2.0252,0.27143 2.02521,0.50324 1.18557,0.41013 0.83963,0.32078 2.02521,0.88235 1.91402,0.82207 0.11118,0.0444 2.02521,0.83063 2.0252,0.94015 0.40449,0.21004 1.62072,0.87903 1.76219,1.14617 0.26301,0.19987 1.99848,1.82534 0.0267,0.03 1.58176,1.99523 0.44345,0.70781 0.76116,1.31739 0.90389,2.02521 0.36015,1.09692 0.28013,0.92828 0.45375,2.02521 0.29835,2.0252 0.18969,2.02521 0.0606,2.0252 -0.11168,2.02521 -0.30068,2.02521 -0.48189,2.0252 -0.38827,1.44787 -0.1465,0.57734 -0.42401,2.0252 -0.25517,2.02521 -0.0771,2.0252 0.1045,2.02521 0.28603,2.0252 0.43244,2.02521 0.0798,0.33977 0.44494,1.68543 0.38716,2.02521 0.15884,2.02521 -0.0971,2.0252 -0.35995,2.02521 -0.53393,1.71086 -0.11115,0.31434 -1.02827,2.02521 -0.88578,1.20414 -0.68093,0.82106 -1.34428,1.30355 -0.73363,0.72166 -1.29158,1.25876 -0.72145,0.76644 -1.30375,1.48815 -0.47568,0.53706 -1.54953,1.606 -0.51262,0.4192 -1.51258,1.0131 -2.02521,0.88919 -0.42482,0.12292 -1.60038,0.42561 -2.02521,0.3331 -2.0252,0.20718 -2.02521,0.17037 -2.0252,0.22221 -2.02521,0.30271 -2.02521,0.35849 -0.0308,0.006 -1.99441,0.35195 -2.02521,0.27282 -2.0252,0.19314 -2.02521,0.11833 -2.0252,0.0349 -2.02521,-0.0582 -2.0252,-0.1216 -2.02521,-0.0872 -2.0252,0.0675 -2.02521,0.21168 -2.02521,0.24279 -2.0252,0.16224 -2.02521,0.0104 -2.0252,-0.16081 -2.02521,-0.33383 z"
     clip-path="url(#p2b18ca2a95)"
     style="fill:none;stroke:#000000;stroke-width:0.8"
     id="path9" />
  <path
     d="m 196.44493,261.58668 -1.11572,-0.33517 -0.90948,-0.28742 -2.02521,-0.85706 -1.51232,-0.88073 -0.51289,-0.34606 -1.99566,-1.67914 -0.0295,-0.0291 -1.78808,-1.99613 -0.23713,-0.33141 -1.08368,-1.6938 -0.94152,-1.95698 -0.0299,-0.0682 -0.7363,-2.02521 -0.54479,-2.0252 -0.31592,-2.02521 -0.11881,-2.0252 -0.0299,-2.02521 0.0442,-2.0252 0.004,-2.02521 -0.0247,-2.0252 -0.0618,-2.02521 -0.0172,-2.02521 0.0309,-2.0252 0.0898,-2.02521 0.0153,-2.0252 -0.0635,-2.02521 -0.063,-2.0252 0.0118,-2.02521 0.10255,-2.0252 0.0879,-2.02521 0.0759,-2.0252 0.052,-2.02521 0.18412,-2.02521 0.32427,-2.0252 0.40164,-2.02521 0.40532,-2.0252 0.17642,-1.06619 0.15643,-0.95902 0.29622,-2.0252 0.39486,-2.02521 0.60469,-2.0252 0.573,-1.4202 0.25576,-0.60501 1.05139,-2.02521 0.71806,-1.09836 0.6709,-0.92684 1.3543,-1.51244 0.55605,-0.51277 1.46916,-1.18146 1.34647,-0.84374 0.67874,-0.39634 2.0252,-0.97744 1.61747,-0.65143 0.40774,-0.15876 2.0252,-0.75358 2.02521,-0.69835 1.35317,-0.41451 0.67203,-0.20709 2.02521,-0.47232 2.0252,-0.27098 2.02521,-0.0452 2.02521,0.20821 2.0252,0.41195 1.56858,0.37539 0.45663,0.10909 2.0252,0.45147 2.02521,0.27671 2.0252,0.0474 2.02521,-0.21207 2.0252,-0.37959 1.40011,-0.29299 0.6251,-0.13402 2.0252,-0.38697 2.02521,-0.29995 2.02521,-0.10967 2.0252,0.0736 2.02521,0.26458 2.0252,0.46482 0.41929,0.12761 1.60592,0.48875 2.0252,0.76513 1.7066,0.77132 0.31861,0.14495 2.0252,0.98974 1.73846,0.89052 0.28675,0.14244 2.0252,1.03579 1.41484,0.84697 0.61037,0.39302 2.01565,1.63219 0.01,0.009 2.0252,2.00836 0.008,0.008 1.65457,2.02521 0.36272,0.59546 0.7943,1.42975 0.78841,2.0252 0.44249,1.53096 0.14225,0.49425 0.43988,2.0252 0.26243,2.02521 0.0722,2.0252 -0.0994,2.02521 -0.24999,2.0252 -0.34718,2.02521 -0.22013,1.03365 -0.18617,0.99156 -0.40482,2.0252 -0.40163,2.02521 -0.32165,2.0252 -0.21952,2.02521 -0.07,2.0252 0.15072,2.02521 0.339,2.0252 0.42302,2.02521 0.37198,2.0252 0.30287,2.02521 0.0162,0.15876 0.19779,1.86645 0.0947,2.0252 -0.0807,2.02521 -0.2118,1.52339 -0.0746,0.50181 -0.51444,2.02521 -0.86253,2.0252 -0.57359,0.88558 -0.86941,1.13963 -1.1558,1.16178 -0.94682,0.86342 -1.07838,0.95616 -1.12876,1.06905 -0.89645,0.91098 -1.01293,1.11422 -1.01228,1.10752 -0.90074,0.91769 -1.12446,1.01955 -1.49596,1.00566 -0.52925,0.31112 -2.0252,0.78688 -2.02521,0.50649 -2.0252,0.30446 -1.05791,0.11625 -0.9673,0.11082 -2.0252,0.2025 -2.02521,0.27595 -2.0252,0.33449 -2.02521,0.31811 -2.02521,0.23876 -2.0252,0.1433 -2.02521,0.0725 -2.0252,-7.4e-4 -2.02521,-10e-4 -2.0252,0.0161 -2.02521,0.0721 -2.0252,0.1342 -1.90497,0.10833 -0.12024,0.007 -2.0252,0.13033 -2.02521,0.18121 -2.02521,0.29732 -2.0252,0.32693 -2.02521,0.24074 -2.0252,0.0877 -2.02521,-0.11341 -2.0252,-0.32998 z"
     clip-path="url(#p2b18ca2a95)"
     style="fill:none;stroke:#000000;stroke-width:0.8"
     id="path10" />
  <path
     d="m 194.41973,265.75541 -2.02521,-0.53513 -2.02521,-0.74131 -2.26083,-1.20226 -2.71213,-2.0252 -2.07957,-2.02521 -1.61215,-2.0252 -1.135,-2.02521 -0.73539,-2.02521 -0.46588,-2.0252 -0.33401,-2.02521 -0.17288,-2.0252 0.0401,-2.02521 0.48344,-4.05041 0.50738,-4.05041 0.0403,-2.0252 -0.11343,-2.02521 -0.83342,-8.10082 -0.1239,-4.05041 0.23889,-12.15124 0.53933,-4.05041 0.63827,-4.05041 0.44727,-4.05041 0.3555,-2.0252 0.5009,-2.02521 0.68634,-2.16587 0.79029,-1.88454 1.23492,-2.20941 2.0252,-2.50065 2.02521,-1.87327 2.19573,-1.51749 1.85468,-0.93189 2.73418,-1.09332 3.34144,-1.02653 4.05041,-1.11235 2.0252,-0.45552 2.02521,-0.27895 2.0252,-0.099 2.02521,0.0853 2.02521,0.31876 2.0252,0.54384 2.02521,0.73822 2.0252,0.61623 2.02521,0.38313 2.0252,0.0534 2.02521,-0.30799 6.07561,-1.84323 2.02521,-0.37737 2.02521,-0.19522 2.0252,-0.0504 2.02521,0.0921 2.0252,0.23883 2.95387,0.65146 3.12175,1.05763 2.2231,0.96757 3.88529,2.02521 4.01764,2.2714 2.49398,1.77901 2.26317,2.0252 1.90408,2.02521 1.54235,2.0252 1.10225,2.02521 0.82019,2.23388 0.4367,1.81653 0.49056,4.05041 0.0932,2.02521 -0.0532,2.0252 -0.24603,2.02521 -0.72121,3.14572 -1.31033,4.9551 -0.34854,2.02521 -0.35057,4.05041 -0.0158,2.16574 0.10384,1.88467 0.51901,4.05041 1.25109,8.10082 0.15412,2.02521 -0.003,2.17971 -0.18223,1.8707 -0.4758,2.0252 -0.83765,2.02521 -1.31761,2.0252 -1.91175,2.02521 -3.37578,3.07443 -0.93792,0.97598 -3.11249,3.57191 -0.52684,0.4785 -1.49837,1.05956 -2.0252,1.06805 -2.02521,0.66635 -2.0252,0.39419 -14.17644,1.9049 -2.02521,0.0315 -2.0252,-0.0915 -6.07562,-0.65171 -2.0252,-0.0381 -2.02521,0.16127 -4.05041,0.71218 -10.12603,1.96549 -2.0252,0.14406 -2.02521,0.009 -4.05041,-0.45209 -2.0252,-0.35402 v 0"
     clip-path="url(#p2b18ca2a95)"
     style="fill:none;stroke:#000000;stroke-width:0.8"
     id="path11" />
  <path
     d="m 190.36931,269.90014 -2.0252,-0.55302 -2.02521,-0.85027 -2.12114,-1.16973 -2.7756,-2.0252 -2.1425,-2.02521 -1.62053,-2.0252 -1.46625,-2.79679 -0.41098,-1.25362 -0.45391,-2.02521 -0.2963,-2.02521 -0.15851,-2.0252 -0.009,-2.02521 0.15653,-2.0252 0.73008,-4.05041 0.91693,-4.05041 0.3404,-2.02521 0.1237,-2.0252 -0.13372,-2.02521 -1.2989,-8.10082 -0.19735,-4.05041 0.0548,-10.12603 0.28245,-8.10082 0.35365,-5.34075 0.33878,-2.76007 0.74946,-4.05042 0.93696,-4.09745 0.71983,-1.97816 1.30538,-2.61135 1.05221,-1.43906 0.97299,-1.06041 1.03777,-0.9648 0.98744,-0.75324 2.0252,-1.32186 2.02521,-0.95182 2.88994,-1.02349 5.21088,-1.34133 3.12018,-0.68387 2.95544,-0.3902 4.05041,-0.14497 2.0252,0.12752 2.37654,0.40765 1.67388,0.43855 6.07561,2.13463 2.02521,0.3952 2.0252,-0.0197 2.02521,-0.51634 4.05041,-1.58573 3.10952,-0.84662 0.94089,-0.20266 4.05041,-0.45912 4.05041,-0.0415 2.02521,0.13105 4.05041,0.59533 2.0252,0.55053 2.02521,0.71266 2.0252,0.89744 4.05042,2.32673 6.35437,3.59039 2.60117,2.0252 1.79183,2.02521 1.41007,2.0252 1.08409,2.02521 0.9349,2.23347 0.52995,1.81694 0.3492,2.02521 0.12098,2.0252 -0.14953,4.05041 -0.32692,4.05041 -0.52368,2.80636 -0.32133,1.24405 -2.6735,8.10083 -0.37022,2.0252 -0.19758,2.02521 -0.0298,2.0252 0.14646,2.02521 0.31721,2.0252 0.4717,2.02521 1.31868,4.05041 1.33856,4.05041 0.41721,2.02521 0.25506,2.0252 -0.0178,2.02521 -0.28375,2.0252 -0.53942,2.02521 -0.90745,2.0252 -1.37136,2.02521 -1.92707,2.0252 -4.42762,4.05042 -3.49197,4.05041 -2.22215,2.0252 -1.68548,1.08323 -2.26205,0.94198 -1.78836,0.53466 -4.05041,0.8386 -4.05041,0.56247 -4.05041,0.37948 -4.05041,0.15946 -2.02521,-0.0283 -2.02521,-0.15691 -4.05041,-0.70687 -2.0252,-0.39475 -2.02521,-0.25199 -2.0252,-0.0309 -2.02521,0.25067 -4.05041,1.10954 -6.07562,1.79765 -4.05041,0.65403 -4.05041,0.40997 -4.05041,0.0531 -2.0252,-0.0561 -2.02521,-0.17154 -2.02521,-0.35402 v 0"
     clip-path="url(#p2b18ca2a95)"
     style="fill:none;stroke:#000000;stroke-width:0.8"
     id="path12" />
  <path
     d="m 184.2937,273.53747 -0.37469,-0.13473 -1.65052,-0.67098 -2.0252,-1.15075 -0.32063,-0.20348 -1.70458,-1.15584 -1.15915,-0.86936 -0.86605,-0.72117 -1.32932,-1.30404 -0.69589,-0.81982 -0.86268,-1.20538 -1.08671,-2.02521 -0.0758,-0.19413 -0.61975,-1.83107 -0.44383,-2.02521 -0.25927,-2.0252 -0.16911,-2.02521 -0.0769,-2.02521 0.0422,-2.0252 0.21905,-2.02521 0.39128,-2.0252 0.53064,-2.02521 0.38565,-1.27831 0.22125,-0.74689 0.64528,-2.02521 0.59318,-2.0252 0.4408,-2.02521 0.12469,-1.22933 0.0795,-0.79587 -0.0652,-2.02521 -0.0143,-0.0946 -0.2835,-1.93059 -0.45267,-2.0252 -0.47881,-2.02521 -0.37443,-2.0252 -0.2337,-2.02521 -0.12878,-2.0252 -0.0653,-2.02521 -0.008,-0.89548 -0.0104,-1.12972 -2e-5,-2.02521 -3e-5,-2.0252 -0.009,-2.02521 -0.0197,-2.02521 -0.0589,-2.0252 -0.13512,-2.02521 -0.15564,-2.0252 -0.0773,-2.02521 0.0471,-2.0252 0.16996,-2.02521 0.21312,-2.0252 0.0365,-0.28254 0.2276,-1.74267 0.25278,-2.02521 0.24447,-2.0252 0.27953,-2.02521 0.36324,-2.0252 0.47216,-2.02521 0.18542,-0.59845 0.48747,-1.42675 0.98159,-2.02521 0.55615,-0.86716 0.86956,-1.15804 1.15564,-1.2117 0.93571,-0.81351 1.0895,-0.82959 1.91549,-1.19561 0.10971,-0.0631 2.02521,-0.98922 2.0252,-0.78351 0.59384,-0.18936 1.43137,-0.43746 2.0252,-0.4584 2.02521,-0.38699 2.02521,-0.39073 1.73139,-0.35163 0.29381,-0.0595 2.02521,-0.33737 2.0252,-0.18849 2.02521,0.007 2.0252,0.1441 2.02521,0.25482 0.78528,0.17938 1.23992,0.25096 2.02521,0.62669 2.02521,0.81369 0.74283,0.33387 1.28237,0.54768 2.02521,0.82206 2.0252,0.634 0.14561,0.0215 1.8796,0.28814 2.0252,-0.16008 0.4239,-0.12806 1.60131,-0.48199 2.0252,-0.88822 1.47996,-0.655 0.54525,-0.24903 2.0252,-0.79747 2.02521,-0.64391 1.46796,-0.3348 0.55725,-0.14179 2.0252,-0.34956 2.02521,-0.25324 2.0252,-0.1325 2.02521,-0.007 2.0252,0.11645 2.02521,0.21173 2.0252,0.31896 1.01911,0.2372 1.0061,0.23777 2.0252,0.67313 2.02521,0.85534 0.54487,0.25897 1.48034,0.72756 2.0252,1.05852 0.461,0.23913 1.56421,0.82787 2.0252,1.01571 0.36042,0.18162 1.66479,0.85681 2.0252,1.16646 0.003,0.002 2.02198,1.39491 0.79352,0.63029 1.23168,1.21714 0.71516,0.80807 1.31005,1.75694 0.18519,0.26826 1.17113,2.02521 0.66889,1.68235 0.11878,0.34285 0.5499,2.02521 0.40161,2.0252 0.2512,2.02521 0.0765,2.02521 -0.12691,2.0252 -0.29355,2.02521 -0.37628,2.0252 -0.36898,2.02521 -0.23231,1.10957 -0.18867,0.91563 -0.54658,2.02521 -0.71188,2.0252 -0.57808,1.35213 -0.27706,0.67308 -0.85983,2.02521 -0.82392,2.0252 -0.0644,0.18287 -0.62176,1.84234 -0.48478,2.0252 -0.25653,2.02521 -0.0184,2.0252 0.22963,2.02521 0.46939,2.0252 0.6825,1.93413 0.0362,0.0911 0.91492,2.0252 1.01203,2.02521 0.062,0.13129 0.92345,1.89392 0.87134,2.0252 0.23042,0.71188 0.43133,1.31333 0.45548,2.0252 0.23362,2.02521 -0.001,2.0252 -0.24475,2.02521 -0.46846,2.0252 -0.40577,1.20252 -0.30217,0.82269 -1.0539,2.0252 -0.66914,0.93569 -0.92456,1.08952 -1.10065,1.05247 -1.11545,0.97274 -0.90975,0.80145 -1.33253,1.22375 -0.69268,0.74215 -1.13052,1.28306 -0.89468,1.05299 -0.84981,0.97221 -1.1754,1.23306 -0.77461,0.79215 -1.25059,1.16464 -1.07941,0.86056 -0.9458,0.61985 -2.0252,0.97646 -1.23661,0.4289 -0.7886,0.24554 -2.02521,0.50988 -2.0252,0.39354 -2.02521,0.29495 -2.0252,0.26718 -2.02521,0.2543 -0.53729,0.0598 -1.48791,0.1602 -2.02521,0.14484 -2.0252,-0.011 -2.02521,-0.14454 -1.23503,-0.14947 -0.79017,-0.0928 -2.02521,-0.33657 -2.02521,-0.46083 -2.0252,-0.5514 -2.02521,-0.56773 -0.0712,-0.0159 -1.95401,-0.43034 -2.02521,-0.23468 -2.0252,0.046 -2.02521,0.3541 -0.8956,0.26487 -1.1296,0.32007 -2.02521,0.7086 -2.0252,0.80136 -0.51762,0.19517 -1.50759,0.54487 -2.02521,0.67065 -2.0252,0.55346 -1.23025,0.25623 -0.79496,0.16082 -2.0252,0.40003 -2.02521,0.37558 -2.0252,0.31526 -2.02521,0.23946 -2.0252,0.11546 -2.02521,-0.0104 -2.02521,-0.18384 -2.0252,-0.3003 -2.02521,-0.42071 z"
     clip-path="url(#p2b18ca2a95)"
     style="fill:none;stroke:#000000;stroke-width:0.8"
     id="path13" />
  <path
     d="m 180.24329,277.89976 -1.15831,-0.44661 -0.8669,-0.36121 -2.0252,-1.00653 -1.08125,-0.65746 -0.94396,-0.63031 -1.72858,-1.3949 -0.29662,-0.26728 -1.70375,-1.75793 -0.32146,-0.38312 -1.18675,-1.64208 -0.83846,-1.5532 -0.22671,-0.47201 -0.7332,-2.0252 -0.47306,-2.02521 -0.23047,-2.0252 -0.0134,-2.02521 0.0743,-2.0252 0.0856,-2.02521 0.10363,-2.02521 0.17008,-2.0252 0.31393,-2.02521 0.52464,-2.0252 0.40458,-1.14544 0.29887,-0.87977 0.74195,-2.0252 0.7343,-2.02521 0.25009,-0.72335 0.44337,-1.30185 0.53916,-2.02521 0.30524,-2.0252 0.009,-2.02521 -0.29954,-2.02521 -0.5458,-2.0252 -0.45097,-1.51312 -0.16468,-0.51209 -0.55063,-2.0252 -0.38798,-2.02521 -0.23829,-2.0252 -0.11402,-2.02521 -0.0314,-2.0252 0.002,-2.02521 0.0123,-2.0252 -0.005,-2.02521 -0.0639,-2.02521 -0.16833,-2.0252 -0.28357,-2.02521 -0.0311,-0.22811 -0.23415,-1.79709 -0.17895,-2.02521 -0.0481,-2.0252 0.10829,-2.02521 0.18424,-2.0252 0.16871,-1.57116 0.0524,-0.45405 0.2107,-2.02521 0.15785,-2.0252 0.13968,-2.02521 0.0991,-2.0252 0.13133,-2.02521 0.25404,-2.0252 0.49636,-2.02521 0.48375,-1.39712 0.23512,-0.62808 0.97156,-2.02521 0.81853,-1.30664 0.52042,-0.71856 1.50478,-1.62344 0.45566,-0.40177 1.56955,-1.13561 1.49733,-0.8896 0.52787,-0.28208 2.02521,-0.9413 2.0252,-0.76259 0.12077,-0.0392 1.90444,-0.58727 2.0252,-0.51223 2.02521,-0.4352 2.0252,-0.37939 0.64171,-0.11112 1.3835,-0.24705 2.02521,-0.32112 2.0252,-0.26649 2.02521,-0.15786 2.0252,-0.0465 2.02521,0.13721 2.0252,0.37136 1.68549,0.53044 0.33972,0.096 2.0252,0.8134 2.02521,0.99124 0.21842,0.12456 1.80679,0.94445 2.0252,1.06971 0.0238,0.011 2.00136,0.88427 2.0252,0.61067 2.02521,0.23369 2.0252,-0.21007 2.02521,-0.6592 1.83145,-0.85936 0.19375,-0.0916 2.02521,-1.07593 1.58162,-0.85772 0.44358,-0.26921 2.02521,-1.02995 1.80931,-0.72605 0.2159,-0.0974 2.0252,-0.56586 2.02521,-0.393 2.0252,-0.25059 2.02521,-0.0901 2.0252,0.0483 2.02521,0.17086 2.0252,0.25722 2.02521,0.3835 2.00353,0.53711 0.0217,0.006 2.02521,0.68542 2.02521,0.77945 1.33142,0.55451 0.69378,0.30426 2.02521,0.90956 1.71487,0.81138 0.31033,0.14684 2.02521,0.9772 1.76593,0.90117 0.25927,0.13063 2.02521,1.01382 1.68062,0.88076 0.34458,0.18352 2.02521,1.21926 0.83156,0.62242 1.19365,1.08513 0.87633,0.94008 1.14887,1.44835 0.42314,0.57685 1.22673,2.02521 0.37534,0.85044 0.45717,1.17476 0.52736,2.02521 0.25438,2.0252 0.0939,2.02521 0.004,2.0252 -0.0423,2.02521 -0.089,2.02521 -0.1984,2.0252 -0.39836,2.02521 -0.57299,2.0252 -0.0354,0.10487 -0.60262,1.92034 -0.60659,2.0252 -0.69096,2.02521 -0.12504,0.30694 -0.69906,1.71826 -0.96934,2.02521 -0.3568,0.70833 -0.62161,1.31688 -0.87411,2.0252 -0.52949,1.38004 -0.22259,0.64517 -0.48972,2.0252 -0.24948,2.02521 0.0393,2.0252 0.3405,2.02521 0.58202,1.97691 0.016,0.0483 0.87972,2.02521 1.02225,2.0252 0.10726,0.20175 1.04386,1.82346 0.98134,1.75421 0.15873,0.271 1.03845,2.0252 0.81407,2.02521 0.014,0.0442 0.63684,1.98095 0.51083,2.02521 0.34289,2.0252 0.10439,2.02521 -0.11187,2.0252 -0.33338,2.02521 -0.56057,2.0252 -0.58913,1.43178 -0.25836,0.59343 -1.21917,2.02521 -0.54768,0.66558 -1.23135,1.35962 -0.79385,0.72751 -1.42953,1.2977 -0.59568,0.50713 -1.58669,1.51807 -0.43852,0.41955 -1.50023,1.60566 -0.52497,0.58232 -1.30078,1.44288 -0.72443,0.83152 -1.18001,1.19369 -0.84519,0.82165 -1.57118,1.20355 -0.45403,0.30086 -2.0252,0.9855 -2.02521,0.72855 -0.0352,0.0103 -1.98997,0.55968 -2.02521,0.45151 -2.02521,0.33241 -2.0252,0.19723 -2.02521,0.10162 -2.0252,0.0824 -2.02521,0.0957 -2.0252,0.0926 -2.02521,0.008 -2.0252,-0.15383 -2.02521,-0.32185 -2.0252,-0.45629 -2.02521,-0.54888 -1.32634,-0.44006 -0.69887,-0.23296 -2.0252,-0.73286 -2.02521,-0.66618 -1.57109,-0.39321 -0.45411,-0.10855 -2.02521,-0.20145 -2.0252,0.0854 -1.24585,0.22457 -0.77936,0.14094 -2.0252,0.58614 -2.02521,0.72574 -1.40589,0.57239 -0.61931,0.24979 -2.02521,0.84128 -2.02521,0.82647 -0.32,0.10767 -1.7052,0.57373 -2.02521,0.641 -2.0252,0.64721 -0.55667,0.16326 -1.46854,0.43504 -2.0252,0.47736 -2.02521,0.2845 -2.0252,0.15218 -2.02521,0.10821 -2.02521,0.085 -2.0252,0.0548 -2.02521,-0.0538 -2.0252,-0.15689 -2.02521,-0.35029 z"
     clip-path="url(#p2b18ca2a95)"
     style="fill:none;stroke:#000000;stroke-width:0.8"
     id="path14" />
  <path
     d="m 182.26849,283.58928 -0.95039,-0.0605 -1.07481,-0.0858 -2.02521,-0.37493 -2.0252,-0.51879 -2.02521,-0.66193 -0.91204,-0.38377 -1.11316,-0.55148 -2.02521,-1.17397 -0.43552,-0.29975 -1.58969,-1.2352 -0.86539,-0.79001 -1.15981,-1.22036 -0.64647,-0.80484 -1.37874,-1.97875 -0.0271,-0.0465 -0.88511,-2.02521 -0.60277,-2.0252 -0.42847,-2.02521 -0.0818,-0.60558 -0.14554,-1.41962 0.006,-2.02521 0.13964,-1.35973 0.0759,-0.66547 0.38873,-2.02521 0.35518,-2.0252 0.26968,-2.02521 0.19338,-2.02521 0.18626,-2.0252 0.27678,-2.02521 0.27931,-1.19003 0.21104,-0.83517 0.76294,-2.02521 0.90019,-2.0252 0.15104,-0.3481 0.66559,-1.67711 0.73074,-2.0252 0.58418,-2.02521 0.0447,-0.26271 0.2982,-1.76249 0.0459,-2.02521 -0.31898,-2.02521 -0.0251,-0.0868 -0.53958,-1.93839 -0.70762,-2.02521 -0.72442,-2.0252 -0.0536,-0.18645 -0.52156,-1.83876 -0.45543,-2.0252 -0.2686,-2.02521 -0.0842,-2.0252 0.0616,-2.02521 0.15217,-2.0252 0.15272,-2.02521 0.0401,-2.02521 -0.12965,-2.0252 -0.28704,-2.02521 -0.31972,-2.0252 -0.28368,-2.02521 -0.0819,-1.12224 -0.0645,-0.90296 0.0458,-2.02521 0.0187,-0.19453 0.18366,-1.83067 0.24233,-2.02521 0.24076,-2.02521 0.12913,-2.0252 0.004,-2.02521 -0.14915,-2.0252 -0.20472,-2.02521 -0.17479,-2.0252 0.0179,-2.02521 0.18638,-2.0252 0.35416,-2.02521 0.66413,-2.0252 0.53102,-0.48755 1.19393,-1.53766 0.83127,-0.73778 1.23209,-1.28743 0.79312,-1.00742 1.10675,-1.01778 0.91846,-1.31 1.07779,-0.71521 0.94741,-0.67999 2.02521,-0.81258 1.48677,-0.53263 0.53843,-0.16595 2.02521,-0.54381 2.0252,-0.48509 2.02521,-0.50965 1.30681,-0.32071 0.71839,-0.15981 2.02521,-0.40706 2.0252,-0.37774 2.02521,-0.34759 2.02521,-0.24198 2.0252,-0.11788 2.02521,-0.0347 2.0252,0.0425 2.02521,0.20613 2.0252,0.58826 1.62733,0.84986 0.39788,0.19711 2.0252,1.32276 0.68077,0.50534 1.34444,0.84234 1.77187,1.18286 0.25334,0.15454 2.0252,1.20845 1.26859,0.66222 0.75662,0.35967 2.0252,0.67424 2.02521,0.23747 2.0252,-0.23991 2.02521,-0.68181 0.70245,-0.34966 1.32275,-0.70389 2.02521,-1.28792 0.0511,-0.0334 1.9741,-1.48994 0.78012,-0.53526 1.24509,-0.99693 1.65824,-1.02828 0.36697,-0.24111 2.0252,-0.82274 2.02521,-0.51337 2.0252,-0.28888 2.02521,-0.13859 2.0252,-0.0203 2.02521,0.089 2.0252,0.20279 2.02521,0.31317 2.0252,0.47751 2.02521,0.614 1.0469,0.32857 0.97831,0.32761 2.0252,0.68746 2.02521,0.67797 0.93129,0.33217 1.09391,0.42555 2.02521,0.83019 1.91682,0.76946 0.10838,0.0488 2.02521,0.90199 2.0252,0.8726 0.48106,0.20177 1.54415,0.71135 2.02521,0.91678 0.77513,0.39707 1.25007,0.75568 1.7092,1.26953 0.31601,0.27443 1.77075,1.75078 0.25445,0.28477 1.38176,1.74043 0.64345,0.98684 0.5536,1.03837 0.72168,2.0252 0.41384,2.02521 0.14802,2.0252 -0.0244,2.02521 -0.23517,2.0252 -0.33417,2.02521 -0.33352,2.0252 -0.2638,2.02521 -0.17523,2.02521 -0.18206,2.0252 -0.28878,1.73268 -0.0508,0.29253 -0.61737,2.0252 -0.80876,2.02521 -0.54824,1.28846 -0.28943,0.73674 -0.77535,2.02521 -0.86461,2.0252 -0.0958,0.21046 -0.83056,1.81475 -0.96378,2.02521 -0.23087,0.54061 -0.64775,1.48459 -0.74016,2.02521 -0.51993,2.0252 -0.11736,0.95948 -0.1362,1.06573 0.11963,2.0252 0.0166,0.077 0.40177,1.94822 0.70681,2.0252 0.91662,1.98328 0.0186,0.0419 1.04736,2.0252 0.95929,1.60876 0.24903,0.41645 1.24293,2.02521 0.53324,0.9989 0.55274,1.0263 0.87397,2.02521 0.5985,1.62553 0.1544,0.39967 0.67349,2.02521 0.56583,2.0252 0.4424,2.02521 0.18908,1.25124 0.11357,0.77396 0.0903,2.02521 -0.12618,2.0252 -0.0777,0.43134 -0.34939,1.59387 -0.71783,2.02521 -0.95798,1.86354 -0.10091,0.16166 -1.69166,2.02521 -0.23264,0.21736 -2.0252,1.59564 -0.29435,0.2122 -1.73086,1.08125 -1.37777,0.94396 -0.64743,0.4447 -1.87952,1.5805 -0.14569,0.13514 -1.70915,1.89007 -0.31606,0.39581 -1.23568,1.62939 -0.78952,1.02491 -0.88246,1.0003 -1.14275,1.12426 -1.21104,0.90095 -0.81416,0.53374 -2.02521,0.97339 -1.40939,0.51807 -0.61581,0.21838 -2.02521,0.5804 -2.0252,0.39719 -2.02521,0.17811 -2.02521,-3.7e-4 -2.0252,-0.11907 -2.02521,-0.14791 -2.0252,-0.13989 -2.02521,-0.10169 -2.0252,-0.0748 -2.02521,-0.10198 -2.0252,-0.20321 -2.02521,-0.36789 -0.44437,-0.11726 -1.58083,-0.39065 -2.02521,-0.62783 -2.02521,-0.73619 -0.69645,-0.27053 -1.32875,-0.5025 -2.02521,-0.67094 -2.0252,-0.45815 -2.02521,-0.1948 -2.0252,0.0644 -2.02521,0.30532 -2.0252,0.52254 -2.02521,0.67509 -0.64224,0.25904 -1.38296,0.59887 -2.02521,0.89002 -1.28659,0.53631 -0.73862,0.34487 -2.0252,0.87505 -1.97139,0.80529 -0.0538,0.0257 -2.0252,0.86447 -2.02521,0.70558 -1.86619,0.42946 -0.15901,0.0364 -2.02521,0.21728 -2.0252,0.14288 -2.02521,0.21514 -2.02521,0.33505 -2.0252,0.3909 -2.02521,0.36259 -2.0252,0.29611 -0.62028,0.0288 z"
     clip-path="url(#p2b18ca2a95)"
     style="fill:none;stroke:#000000;stroke-width:0.8"
     id="path15" />
  <path
     d="m 176.19288,287.73241 -1.27515,-0.15323 -0.75006,-0.10245 -2.0252,-0.41561 -2.02521,-0.55951 -2.02521,-0.79343 -0.31367,-0.15421 -1.71153,-1.05325 -1.3899,-0.97195 -0.63531,-0.51235 -1.56983,-1.51286 -0.45537,-0.50386 -1.13706,-1.52134 -0.88815,-1.34385 -0.37182,-0.68136 -0.90037,-2.0252 -0.59191,-2.02521 -0.1611,-1.07134 -0.11801,-0.95387 -0.0458,-2.0252 0.0596,-2.02521 0.10425,-1.24417 0.0589,-0.78103 0.26508,-2.02521 0.33733,-2.0252 0.39103,-2.02521 0.40268,-2.0252 0.36686,-2.02521 0.20333,-1.335 0.0979,-0.69021 0.23985,-2.0252 0.25884,-2.02521 0.37522,-2.0252 0.58643,-2.02521 0.46697,-1.13878 0.37789,-0.88642 0.9472,-2.02521 0.70011,-1.56316 0.18796,-0.46204 0.68621,-2.02521 0.42503,-2.0252 0.10702,-2.02521 -0.21175,-2.02521 -0.496,-2.0252 -0.69847,-2.01647 -0.003,-0.009 -0.74412,-2.0252 -0.78675,-2.02521 -0.49146,-1.40981 -0.22973,-0.61539 -0.4888,-2.02521 -0.21244,-2.0252 0.0425,-2.02521 0.20598,-2.0252 0.23083,-2.02521 0.12796,-2.02521 -0.10833,-2.0252 -0.24497,-2.02521 -0.29517,-2.0252 -0.2515,-2.02521 -0.14958,-2.0252 0.003,-2.02521 0.13691,-2.0252 0.1896,-2.02521 0.17648,-2.02521 0.0691,-2.0252 -0.13592,-2.02521 -0.28459,-2.0252 -0.3276,-2.02521 -0.31469,-2.0252 -0.16404,-1.58184 -0.0475,-0.44337 -0.12133,-2.0252 0.0302,-2.02521 0.13859,-1.4643 0.061,-0.5609 1.76455,-2.02521 0.19966,-0.0447 2.0252,-0.56333 2.02521,-1.40442 0.0147,-0.0128 1.97154,-2.0252 0.039,-0.0767 1.23434,-1.94847 -0.0666,-2.0252 0.21179,-2.02521 0.64567,-0.72388 2.02521,-0.61949 2.0252,-0.51274 0.66462,-0.16909 1.36059,-0.31998 2.0252,-0.51811 2.02521,-0.51175 2.0252,-0.46325 0.94401,-0.21212 1.0812,-0.24051 2.0252,-0.45089 2.02521,-0.48305 2.0252,-0.44939 2.02521,-0.32213 0.99876,-0.0792 1.02645,-0.0765 2.0252,-0.0301 2.02521,0.0565 0.52654,0.0501 1.49866,0.1418 2.02521,0.33527 2.0252,0.66791 1.60414,0.88022 0.42107,0.23713 2.0252,1.5464 0.26791,0.24168 1.7573,1.48164 0.62179,0.54356 1.40342,1.08344 1.25508,0.94177 0.77012,0.51941 2.02521,1.20319 0.71013,0.3026 1.31507,0.49681 2.02521,0.29977 2.0252,-0.24715 1.50155,-0.54943 0.52366,-0.21344 2.0252,-1.23936 0.75387,-0.5724 1.27134,-1.05885 1.06839,-0.96636 0.95681,-0.90483 1.27588,-1.12037 0.74933,-0.6698 1.94585,-1.35541 0.0794,-0.0555 2.0252,-0.82527 2.02521,-0.40709 2.0252,-0.16249 2.02521,-0.0928 2.0252,-0.0978 2.02521,-0.0967 2.0252,-0.0182 2.02521,0.13765 2.0252,0.30812 2.02521,0.46492 2.02521,0.54912 0.98941,0.29604 1.03579,0.32395 2.02521,0.68545 2.0252,0.72601 0.84697,0.2898 1.17824,0.41152 2.0252,0.65954 2.02521,0.63807 0.98215,0.31607 1.04305,0.3727 2.02521,0.77157 2.02521,0.72132 0.50645,0.15962 1.51875,0.53156 2.02521,0.82965 1.33149,0.66399 0.69371,0.42023 2.02521,1.43453 0.20298,0.17045 1.82222,1.75523 0.25498,0.26997 1.65389,2.02521 0.11634,0.17231 1.05798,1.8529 0.84721,2.0252 0.12001,0.49416 0.29311,1.53105 0.1285,2.0252 -0.0924,2.02521 -0.27115,2.0252 -0.0581,0.33592 -0.26935,1.68929 -0.37355,2.0252 -0.38718,2.02521 -0.42094,2.0252 -0.42553,2.02521 -0.14865,0.77272 -0.22284,1.25249 -0.31822,2.0252 -0.38665,2.02521 -0.56893,2.0252 -0.52857,1.38319 -0.2457,0.64202 -0.89833,2.0252 -0.88117,1.90969 -0.0501,0.11552 -0.89275,2.0252 -0.97488,2.02521 -0.10747,0.20885 -0.87175,1.81636 -0.93165,2.0252 -0.2218,0.53324 -0.60069,1.49197 -0.59501,2.0252 -0.27681,2.02521 0.1003,2.0252 0.49351,2.02521 0.79465,2.0252 0.084,0.17521 0.90869,1.85 1.11651,1.93562 0.0543,0.0896 1.30851,2.02521 0.66243,1.03734 0.65764,0.98787 1.1864,2.0252 0.18116,0.3739 0.84755,1.65131 0.91161,2.0252 0.26605,0.68719 0.53749,1.33802 0.67433,2.0252 0.52702,2.02521 0.28636,1.58753 0.0832,0.43767 0.26788,2.02521 0.13365,2.0252 -0.0194,2.02521 -0.22481,2.02521 -0.24046,1.13285 -0.22482,0.89235 -0.86247,2.02521 -0.93791,1.50317 -0.38849,0.52203 -1.63672,1.70468 -0.35765,0.32053 -1.66755,1.26655 -1.13465,0.75865 -0.89056,0.55782 -2.0252,1.26176 -0.3217,0.20563 -1.70351,1.2949 -0.81267,0.7303 -1.21253,1.32186 -0.56453,0.70335 -1.46068,1.90578 -0.0889,0.11943 -1.75055,2.0252 -0.18576,0.18233 -2.0252,1.66809 -0.26947,0.17479 -1.75574,0.96992 -2.0252,0.90909 -0.39366,0.14619 -1.63155,0.53112 -2.0252,0.47232 -2.02521,0.2534 -2.0252,0.0788 -2.02521,-0.0576 -2.02521,-0.17278 -2.0252,-0.23879 -2.02521,-0.28546 -2.0252,-0.30501 -2.02521,-0.25823 -0.16644,-0.0177 -1.85876,-0.17266 -2.02521,-0.17334 -2.0252,-0.27838 -2.02521,-0.42299 -2.0252,-0.60168 -0.99635,-0.37615 -1.02886,-0.35483 -2.02521,-0.80895 -2.0252,-0.81952 -0.12804,-0.0419 -1.89717,-0.60718 -2.0252,-0.4192 -2.02521,-0.14365 -2.0252,0.0979 -2.02521,0.31629 -2.0252,0.51242 -0.74158,0.24339 -1.28363,0.47763 -2.0252,0.87608 -1.52691,0.6715 -0.4983,0.24757 -2.02521,1.04826 -1.50336,0.72937 -0.52184,0.28825 -2.02521,1.05729 -1.58761,0.67967 -0.43759,0.19135 -2.02521,0.65094 -2.0252,0.37788 -2.02521,0.20622 -2.0252,0.1977 -2.02521,0.33517 -0.28574,0.0659 -1.73947,0.42903 -2.0252,0.52745 -2.02521,0.46203 -2.0252,0.40473 -1.35183,0.20197 -0.67338,0.10793 -2.0252,0.1696 -2.02521,0.0232 z"
     clip-path="url(#p2b18ca2a95)"
     style="fill:none;stroke:#000000;stroke-width:0.8"
     id="path16" />
  <path
     d="m 170.11726,291.79538 -0.62939,-0.16579 -1.39582,-0.35387 -2.0252,-0.66107 -2.02521,-0.94297 -0.13083,-0.0673 -1.89437,-1.05966 -1.43044,-0.96554 -0.59477,-0.46047 -1.69868,-1.56474 -0.32652,-0.3617 -1.36372,-1.6635 -0.66149,-1.08209 -0.53146,-0.94312 -0.88877,-2.0252 -0.60497,-1.87697 -0.0461,-0.14824 -0.42097,-2.0252 -0.21219,-2.02521 -0.0287,-2.02521 0.11938,-2.0252 0.28324,-2.02521 0.30536,-1.38744 0.12441,-0.63776 0.49519,-2.02521 0.4624,-2.0252 0.41111,-2.02521 0.3812,-2.0252 0.15089,-0.78555 0.21578,-1.23966 0.36633,-2.02521 0.35951,-2.0252 0.3313,-2.02521 0.36563,-2.0252 0.38666,-1.66748 0.0819,-0.35773 0.67984,-2.0252 0.87922,-2.02521 0.38425,-0.8216 0.57068,-1.2036 0.89696,-2.02521 0.55757,-1.63751 0.1171,-0.38769 0.32461,-2.02521 0.001,-2.02521 -0.3406,-2.0252 -0.10217,-0.33195 -0.52728,-1.69326 -0.84019,-2.0252 -0.65774,-1.40351 -0.32436,-0.6217 -0.95556,-2.0252 -0.67962,-2.02521 -0.0657,-0.38835 -0.28842,-1.63685 -0.0978,-2.02521 0.0496,-2.0252 0.10012,-2.02521 0.0879,-2.02521 -0.0461,-2.0252 -0.0725,-2.02521 -0.0761,-2.0252 0.004,-2.02521 0.063,-2.0252 0.12564,-2.02521 0.12511,-2.0252 0.0254,-0.57122 0.0731,-1.45399 -0.0131,-2.02521 -0.0599,-0.8573 -0.0819,-1.1679 -0.33141,-2.02521 -0.46681,-2.0252 -0.53352,-2.02521 -0.50415,-2.0252 -0.10744,-0.55374 -0.31948,-1.47147 -0.28616,-2.0252 -0.13677,-2.02521 -0.0235,-2.0252 0.11697,-2.02521 0.31554,-2.02521 0.33337,-1.40089 0.19231,-0.62431 0.64793,-2.02521 0.96427,-2.0252 0.2207,-0.3952 1.05399,-1.63001 0.97121,-1.09005 1.03566,-0.93515 0.98955,-0.72522 2.0252,-1.1636 0.30621,-0.13639 1.719,-0.74012 2.0252,-0.65595 2.02521,-0.51324 0.60351,-0.11589 1.4217,-0.2789 2.0252,-0.33082 2.02521,-0.3227 2.0252,-0.43747 2.02521,-0.51761 0.57622,-0.13771 1.44898,-0.37542 2.02521,-0.44535 2.0252,-0.45243 2.02521,-0.48211 1.33824,-0.2699 0.68696,-0.13942 2.02521,-0.26203 2.02521,-0.11271 2.0252,0.026 2.02521,0.18683 1.54183,0.30131 0.48337,0.084 2.02521,0.51891 2.0252,0.76284 1.2333,0.65947 0.79191,0.41481 2.0252,1.39822 0.25672,0.21218 1.76849,1.55923 0.47228,0.46597 1.55293,1.47857 0.56004,0.54664 1.46516,1.24845 1.00029,0.77675 1.02492,0.6992 2.0252,1.00956 1.56903,0.31645 0.45618,0.0826 0.65039,-0.0826 1.37481,-0.18465 2.02521,-0.88401 1.38127,-0.95655 0.64393,-0.45368 1.77569,-1.57152 0.24952,-0.22505 1.87954,-1.80016 0.14566,-0.14203 2.02521,-1.83401 0.0698,-0.0492 1.95543,-1.29908 1.86867,-0.72613 0.15653,-0.0569 2.02521,-0.31973 2.0252,-0.16272 2.02521,-0.18005 2.0252,-0.29017 2.02521,-0.33679 2.0252,-0.22363 2.02521,0.016 2.0252,0.23044 2.02521,0.34133 2.02521,0.38851 2.0252,0.45803 0.48553,0.13568 1.53968,0.44262 2.0252,0.725 2.02521,0.77238 0.24307,0.0852 1.78213,0.58566 2.02521,0.55325 2.0252,0.51106 1.3286,0.37523 0.69661,0.20312 2.02521,0.60897 2.0252,0.60284 2.01825,0.61028 0.007,0.002 2.0252,0.65282 2.02521,0.83624 0.99186,0.53408 1.03334,0.60842 1.79759,1.41679 0.22762,0.19521 1.91435,1.82999 0.11085,0.11286 1.76574,1.91235 0.25947,0.33844 1.15121,1.68676 0.87399,1.96359 0.0253,0.0616 0.55477,2.02521 0.31642,2.0252 0.0964,2.02521 -0.0882,2.0252 -0.26419,2.02521 -0.41053,2.0252 -0.23003,0.93134 -0.2529,1.09387 -0.51239,2.0252 -0.47066,2.02521 -0.43864,2.0252 -0.35061,1.53601 -0.10627,0.4892 -0.48906,2.02521 -0.4907,2.0252 -0.50335,2.02521 -0.43583,1.54292 -0.1301,0.48228 -0.66946,2.02521 -0.84463,2.0252 -0.38101,0.79 -0.58199,1.23521 -1.05481,2.0252 -0.38841,0.66137 -0.735,1.36384 -1.19593,2.02521 -0.0943,0.15206 -1.05188,1.87314 -0.97333,1.98659 -0.0174,0.0386 -0.69442,2.0252 -0.30635,2.02521 0.14692,2.0252 0.57517,2.02521 0.29607,0.68288 0.62969,1.34232 1.13399,2.02521 0.26153,0.42665 1.02795,1.59855 0.99725,1.46105 0.39754,0.56416 1.40903,2.02521 0.21864,0.34247 1.11035,1.68273 0.91485,1.55888 0.29429,0.46633 1.09554,2.0252 0.63538,1.358 0.3408,0.66721 0.83301,2.0252 0.64873,2.02521 0.20266,0.93976 0.2424,1.08544 0.30462,2.02521 0.19244,2.0252 0.15232,2.02521 0.0891,2.02521 -0.0764,2.0252 -0.38692,2.02521 -0.5176,1.4186 -0.22253,0.6066 -1.11127,2.02521 -0.6914,0.96856 -0.86905,1.05664 -1.15616,1.08538 -1.19615,0.93983 -0.82905,0.55511 -2.02521,1.29539 -0.26703,0.1747 -1.75817,1.20142 -1.10247,0.82379 -0.92274,0.75446 -1.40766,1.27075 -0.61754,0.60732 -1.28977,1.41788 -0.73544,0.85373 -0.98253,1.17148 -1.04267,1.18124 -0.84678,0.84396 -1.17843,1.06165 -1.38304,0.96356 -0.64217,0.41155 -2.0252,0.97712 -1.86028,0.63653 -0.16493,0.0525 -2.0252,0.49573 -2.02521,0.29738 -2.0252,0.0827 -2.02521,-0.0604 -2.0252,-0.13301 -2.02521,-0.15269 -2.02521,-0.1399 -2.0252,-0.107 -2.02521,-0.10121 -2.0252,-0.17809 -0.49404,-0.056 -1.53117,-0.19443 -2.0252,-0.32181 -2.02521,-0.35542 -2.0252,-0.47974 -2.02521,-0.60245 -0.19563,-0.0713 -1.82957,-0.66641 -2.02521,-0.85594 -1.07718,-0.50286 -0.94803,-0.45057 -2.0252,-0.89436 -2.01528,-0.68027 -0.01,-0.003 -2.0252,-0.41728 -2.02521,-0.0801 -2.0252,0.22555 -1.14977,0.2752 -0.87544,0.21006 -2.0252,0.69635 -2.02521,0.91428 -0.42475,0.20451 -1.60045,0.81194 -2.02521,1.11101 -0.18688,0.10226 -1.83833,1.05094 -1.71494,0.97426 -0.31026,0.16727 -2.02521,0.94906 -2.0252,0.71147 -0.79478,0.19741 -1.23043,0.28929 -2.0252,0.34002 -2.02521,0.33313 -2.0252,0.40152 -2.02521,0.45896 -0.84413,0.20228 -1.18108,0.29417 -2.0252,0.51655 -2.02521,0.53013 -2.0252,0.53714 -0.68923,0.14722 -1.33598,0.31069 -2.0252,0.31623 -2.02521,0.17255 -2.0252,0.0362 -2.02521,-0.0736 -2.0252,-0.2455 -2.02521,-0.35081"
     clip-path="url(#p2b18ca2a95)"
     style="fill:none;stroke:#000000;stroke-width:0.8"
     id="path17"
     sodipodi:nodetypes="ccccccccccccccccccccccccccccccccccccccccccccccccccccccccccccccccccccccccccccccccccccccccccccccccccccccccccccccccccccccccccccccccccccccccccccccccccccccccccccccccccccccccccccccccccccccccccccccccccccccccccccccccccccccccccccccccccccccccccccccccccccccccccccccccccccccccccccccccccccccccccccccccccccccccccccccccccccccccccccccccccccccc" />
  <path
     d="m 164.04164,295.75966 -0.23162,-0.0797 -1.79358,-0.62679 -2.02521,-0.90156 -0.8964,-0.49686 -1.1288,-0.63475 -2.02521,-1.37056 -0.0255,-0.0199 -1.99972,-1.71405 -0.31116,-0.31116 -1.71405,-1.99972 -0.0197,-0.0255 -1.28798,-2.02521 -0.71754,-1.61672 -0.17585,-0.40848 -0.63147,-2.02521 -0.47318,-2.0252 -0.32508,-2.02521 -0.18676,-2.0252 -0.0127,-2.02521 0.12839,-2.02521 0.29873,-2.0252 0.38896,-2.02521 0.47175,-2.0252 0.51723,-1.84455 0.0513,-0.18066 0.56948,-2.0252 0.53986,-2.02521 0.50436,-2.0252 0.36021,-1.48209 0.1296,-0.54312 0.50574,-2.02521 0.52475,-2.0252 0.4976,-2.02521 0.36752,-1.55712 0.11099,-0.46808 0.55649,-2.02521 0.65965,-2.0252 0.69807,-1.88064 0.0595,-0.14457 0.94009,-2.0252 0.90112,-2.02521 0.12448,-0.31119 0.73386,-1.71401 0.59414,-2.02521 0.23956,-2.02521 -0.17248,-2.0252 -0.5867,-2.02521 -0.80838,-1.78471 -0.11334,-0.24049 -1.16495,-2.02521 -0.74692,-1.38952 -0.33807,-0.63568 -0.75739,-2.02521 -0.4658,-2.0252 -0.25769,-2.02521 -0.11751,-2.0252 -0.0173,-2.02521 0.0413,-2.02521 0.0469,-2.0252 0.10818,-2.02521 0.19206,-2.0252 0.29276,-2.02521 0.32373,-2.0252 0.29366,-2.02521 0.18851,-2.0252 0.007,-2.02521 -0.20032,-2.02521 -0.44327,-2.0252 -0.65283,-2.02521 -0.2694,-0.67869 -0.56467,-1.34651 -0.85758,-2.02521 -0.60296,-1.5363 -0.19901,-0.4889 -0.68674,-2.02521 -0.54604,-2.0252 -0.42481,-2.02521 -0.16861,-1.29654 -0.10159,-0.72866 -0.0364,-2.02521 0.13799,-1.2542 0.0824,-0.77101 0.36827,-2.0252 0.51119,-2.02521 0.61817,-2.0252 0.44516,-1.22501 0.28475,-0.8002 0.85484,-2.0252 0.88562,-1.45495 0.37896,-0.57026 1.64624,-1.83173 0.21297,-0.19347 1.81224,-1.35132 1.19572,-0.67389 0.82948,-0.44194 2.02521,-0.79675 2.0252,-0.58622 0.77569,-0.2003 1.24952,-0.3304 2.0252,-0.37874 2.02521,-0.34319 2.02521,-0.30015 2.0252,-0.25223 2.02521,-0.28637 0.64234,-0.13412 1.38286,-0.29129 2.02521,-0.53387 2.0252,-0.48445 2.02521,-0.38317 1.95349,-0.33243 0.0717,-0.0124 2.02521,-0.35145 2.0252,-0.33011 2.02521,-0.26636 2.02521,-0.14532 2.0252,0.047 2.02521,0.26626 2.0252,0.45331 1.05395,0.33898 0.97126,0.31485 2.0252,0.93402 1.30385,0.77634 0.72136,0.42068 2.0252,1.39203 0.27292,0.21249 1.75229,1.36182 0.7458,0.66339 1.27941,1.19527 0.81728,0.82994 1.20792,1.26325 0.74853,0.76195 1.27668,1.16497 1.2289,0.86024 0.7963,0.47295 2.02521,0.55914 2.0252,-0.19535 1.88138,-0.83674 0.14383,-0.067 2.0252,-1.49362 0.51913,-0.46456 1.50608,-1.37795 0.66512,-0.64725 1.36008,-1.26682 0.86181,-0.75839 1.1634,-0.92831 1.75321,-1.0969 0.272,-0.16279 2.0252,-0.79036 2.02521,-0.45849 2.0252,-0.35352 1.23149,-0.26004 0.79372,-0.19495 2.0252,-0.54823 2.02521,-0.47148 2.0252,-0.28451 2.02521,-0.0924 2.0252,0.10687 2.02521,0.22435 2.02521,0.29939 2.0252,0.38224 2.02521,0.4972 0.27101,0.0815 1.75419,0.51316 2.02521,0.65647 2.0252,0.69147 0.50793,0.1641 1.51728,0.47557 2.0252,0.52072 2.02521,0.46055 2.02521,0.44777 0.58184,0.1206 1.44336,0.30436 2.02521,0.39085 2.0252,0.42947 2.02521,0.56115 0.9287,0.33938 1.0965,0.40469 2.02521,0.91131 1.26079,0.7092 0.76441,0.46132 2.02521,1.43609 0.15856,0.1278 1.86664,1.67235 0.35418,0.35285 1.67103,1.85057 0.14473,0.17464 1.41051,2.0252 0.46996,0.89032 0.54914,1.13489 0.71021,2.0252 0.48475,2.02521 0.28111,1.93151 0.014,0.0937 -2.3e-4,2.0252 -0.0138,0.24204 -0.0943,1.78317 -0.25324,2.0252 -0.38677,2.02521 -0.53724,2.0252 -0.63344,2.02521 -0.12026,0.36439 -0.52714,1.66081 -0.59763,2.02521 -0.52574,2.0252 -0.37469,1.57826 -0.10688,0.44695 -0.52465,2.02521 -0.56978,2.0252 -0.61591,2.02521 -0.20799,0.62858 -0.4312,1.39662 -0.68708,2.02521 -0.80209,2.0252 -0.10483,0.20867 -0.91256,1.81654 -1.11265,1.91992 -0.0613,0.10528 -1.33928,2.02521 -0.62462,0.84954 -0.81277,1.17567 -1.21244,1.7219 -0.19523,0.3033 -1.19128,2.02521 -0.63869,1.62434 -0.15209,0.40086 -0.32708,2.02521 0.21543,2.0252 0.26374,0.78097 0.42733,1.24424 1.05431,2.0252 0.54356,0.8997 0.73762,1.12551 1.28759,1.8491 0.13502,0.1761 1.5049,2.02521 0.38528,0.54699 1.11523,1.47822 0.90998,1.30086 0.54736,0.72434 1.40136,2.02521 0.0765,0.12347 1.27603,1.90173 0.74918,1.27455 0.45905,0.75066 0.96041,2.0252 0.60574,1.80685 0.0741,0.21836 0.4676,2.0252 0.38058,2.02521 0.35785,2.0252 0.35509,2.02521 0.28034,2.02521 0.1048,2.0252 -0.0814,2.02521 -0.32696,2.0252 -0.57906,2.02521 -0.95004,2.0252 -0.0829,0.12483 -1.31564,1.90038 -0.70956,0.76108 -1.23161,1.26412 -0.7936,0.71332 -1.67495,1.31189 -0.35025,0.2644 -2.02521,1.27971 -0.80398,0.4811 -1.22122,0.77239 -1.82463,1.25281 -0.20058,0.15346 -2.0252,1.73414 -0.14218,0.13761 -1.88303,1.98874 -0.0319,0.0365 -1.73787,2.02521 -0.25545,0.28248 -1.65249,1.74272 -0.37272,0.36796 -1.93552,1.65725 -0.0897,0.072 -2.02521,1.27216 -1.66342,0.68108 -0.36179,0.14325 -2.0252,0.50896 -2.02521,0.29407 -2.0252,0.11265 -2.02521,-0.0602 -2.0252,-0.23788 -2.02521,-0.3492 -2.0252,-0.3921 -0.10612,-0.0195 -1.91909,-0.30705 -2.02521,-0.23391 -2.0252,-0.11251 -2.02521,-0.0468 -2.0252,-0.065 -2.02521,-0.16202 -2.0252,-0.2892 -2.02521,-0.4572 -1.17672,-0.35154 -0.84848,-0.2733 -2.02521,-0.8124 -2.0252,-0.90575 -0.0702,-0.0338 -1.95499,-0.9093 -2.02521,-0.99339 -0.24584,-0.12251 -1.77936,-0.86574 -2.02521,-0.74045 -2.0252,-0.40644 -0.84891,-0.0126 -1.1763,-0.0181 -0.10763,0.0181 -1.91757,0.32854 -2.02521,0.63378 -2.0252,0.91769 -0.27167,0.1452 -1.75354,0.99408 -1.65391,1.03112 -0.37129,0.24113 -2.02521,1.28903 -0.79969,0.49505 -1.22552,0.71577 -2.0252,1.05393 -0.60928,0.2555 -1.41593,0.56348 -2.0252,0.64225 -2.02521,0.51136 -1.28217,0.30812 -0.74303,0.1962 -2.02521,0.57586 -2.0252,0.59219 -2.02521,0.56032 -0.36389,0.10063 -1.66132,0.45945 -2.0252,0.61062 -2.02521,0.65969 -0.93347,0.29545 -1.09173,0.34156 -2.02521,0.54295 -2.0252,0.42367 -2.02521,0.291 -2.0252,0.19701 -2.02521,0.0682 -2.0252,-0.0975 -2.02521,-0.273 -2.02521,-0.38983 -2.0252,-0.44624 z"
     clip-path="url(#p2b18ca2a95)"
     style="fill:none;stroke:#000000;stroke-width:0.8"
     id="path18"
     sodipodi:nodetypes="ccccccccccccccccccccccccccccccccccccccccccccccccccccccccccccccccccccccccccccccccccccccccccccccccccccccccccccccccccccccccccccccccccccccccccccccccccccccccccccccccccccccccccccccccccccccccccccccccccccccccccccccccccccccccccccccccccccccccccccccccccccccccccccccccccccccccccccccccccccccccccccccccccccccccccccccccccccccccccccccccccccccccccccccccccccccccccccc" />
  <path
     d="m 164.04164,302.03984 -1.24671,-0.28422 -0.77849,-0.19298 -2.02521,-0.49977 -2.0252,-0.54643 -2.02521,-0.77331 -0.0247,-0.0127 -2.00048,-1.1675 -1.34846,-0.85771 -0.67675,-0.47056 -2.02521,-1.48991 -0.0768,-0.0647 -1.94844,-1.94844 -0.0647,-0.0768 -1.47337,-2.0252 -0.48711,-0.76314 -0.70991,-1.26207 -0.91502,-2.0252 -0.40027,-1.10327 -0.29492,-0.92194 -0.45072,-2.0252 -0.28053,-2.02521 -0.11112,-2.0252 -0.007,-2.02521 0.0427,-2.0252 0.11893,-2.02521 0.2759,-2.02521 0.45963,-2.0252 0.24688,-0.90458 0.30914,-1.12063 0.55868,-2.0252 0.60057,-2.02521 0.55681,-1.68774 0.10999,-0.33746 0.72736,-2.02521 0.74923,-2.0252 0.43863,-1.15194 0.30751,-0.87327 0.68803,-2.02521 0.66682,-2.0252 0.36284,-1.05466 0.31695,-0.97055 0.67183,-2.0252 0.69716,-2.02521 0.33927,-0.88256 0.42725,-1.14264 0.8125,-2.02521 0.78546,-1.86075 0.0729,-0.16445 0.91226,-2.02521 0.81357,-2.0252 0.22649,-0.72734 0.42672,-1.29787 0.3111,-2.02521 -0.12296,-2.0252 -0.59248,-2.02521 -0.0224,-0.0454 -0.96184,-1.97983 -1.06336,-1.77446 -0.147,-0.25075 -1.0824,-2.0252 -0.79581,-1.96716 -0.0233,-0.058 -0.53643,-2.0252 -0.34354,-2.02521 -0.16394,-2.0252 -0.0293,-2.02521 0.0547,-2.02521 0.12926,-2.0252 0.21639,-2.02521 0.30688,-2.0252 0.35667,-2.02521 0.0326,-0.1729 0.37544,-1.8523 0.30346,-2.02521 0.11828,-2.0252 -0.13977,-2.02521 -0.40403,-2.02521 -0.25338,-0.87204 -0.35166,-1.15316 -0.81397,-2.02521 -0.85958,-1.77806 -0.13469,-0.24714 -1.14833,-2.02521 -0.74218,-1.33349 -0.43143,-0.69171 -1.0795,-2.02521 -0.51428,-1.19312 -0.34961,-0.83208 -0.59338,-2.02521 -0.34066,-2.0252 -0.14892,-2.02521 -0.003,-2.02521 0.1028,-2.0252 0.14886,-2.02521 0.19605,-2.0252 0.29534,-2.02521 0.44963,-2.0252 0.24243,-0.79874 0.4266,-1.22647 0.92455,-2.0252 0.67406,-1.13046 0.62928,-0.89475 1.39592,-1.64262 0.38259,-0.38259 1.64262,-1.41668 0.81439,-0.60852 1.21082,-0.80322 2.0252,-1.13709 0.19243,-0.0849 1.83278,-0.67052 2.0252,-0.4615 2.02521,-0.33611 2.0252,-0.30155 2.02521,-0.23614 0.22797,-0.0194 1.79723,-0.13794 2.02521,-0.0909 2.02521,-0.14179 2.0252,-0.22707 2.02521,-0.29326 2.0252,-0.32664 2.02521,-0.39556 1.9603,-0.41204 0.0649,-0.0133 2.02521,-0.42991 2.0252,-0.40865 2.02521,-0.34402 2.0252,-0.28598 2.02521,-0.19168 2.02521,-0.0548 2.0252,0.15338 2.02521,0.35436 2.0252,0.5018 2.02521,0.70232 0.0323,0.0165 1.99295,1.01193 1.57013,1.01328 0.45508,0.28272 2.0252,1.45605 0.36178,0.28643 1.66343,1.31024 0.82193,0.71497 1.20328,1.06864 1.01137,0.95656 1.01383,0.99363 1.05061,1.03158 0.9746,0.99854 1.19101,1.02667 0.83419,0.68786 2.02521,0.89664 2.0252,-0.067 2.02521,-0.8984 0.83697,-0.61914 1.18823,-0.82195 1.39455,-1.20326 0.63066,-0.49061 1.84643,-1.5346 0.17877,-0.13693 2.02521,-1.50747 0.61537,-0.3808 1.40984,-0.89888 2.0252,-1.00702 0.33368,-0.11931 1.69153,-0.69329 2.0252,-0.74645 1.70955,-0.58546 0.31566,-0.10922 2.0252,-0.54783 2.02521,-0.37881 2.0252,-0.24943 2.02521,-0.15484 2.0252,-0.0812 2.02521,-0.0201 2.02521,0.0679 2.0252,0.21484 2.02521,0.37674 2.0252,0.52083 1.22638,0.36116 0.79883,0.24785 2.0252,0.63938 2.02521,0.66407 1.51781,0.4739 0.50739,0.16089 2.02521,0.51343 2.02521,0.39916 2.0252,0.33556 2.02521,0.25695 2.0252,0.17883 1.53506,0.18039 0.49015,0.0643 2.0252,0.39625 2.02521,0.50736 2.0252,0.61978 1.20316,0.43751 0.82205,0.35088 2.0252,0.99016 1.23891,0.68417 0.7863,0.50862 2.0252,1.45275 0.0761,0.0638 1.94907,1.9254 0.085,0.0998 1.54974,2.02521 0.39046,0.55433 0.91573,1.47087 1.06558,2.02521 0.0439,0.10636 0.67786,1.91884 0.43475,2.02521 0.2931,2.0252 0.14149,2.02521 -0.0769,2.02521 -0.1907,2.0252 -0.27062,2.02521 -0.38447,2.0252 -0.54974,2.02521 -0.0748,0.2103 -0.65621,1.8149 -0.79833,2.02521 -0.57066,1.41536 -0.24155,0.60984 -0.77974,2.02521 -0.68184,2.0252 -0.32208,1.15582 -0.23848,0.86939 -0.50078,2.02521 -0.48285,2.0252 -0.55976,2.02521 -0.24334,0.67359 -0.51092,1.35161 -0.91581,2.02521 -0.59847,1.17457 -0.42598,0.85063 -1.13948,2.02521 -0.45975,0.73319 -0.81126,1.29201 -1.21394,1.76771 -0.18079,0.2575 -1.55626,2.02521 -0.28816,0.35051 -1.30913,1.67469 -0.71607,0.99597 -0.66799,1.02924 -0.92684,2.0252 -0.3445,2.02521 0.24725,2.0252 0.81384,2.02521 0.87824,1.46193 0.3834,0.56327 1.60309,2.02521 0.0387,0.0499 1.68991,1.97534 0.3353,0.42453 1.32063,1.60068 0.70457,0.88147 0.91735,1.14374 1.10786,1.41154 0.46951,0.61366 1.50478,2.02521 0.0509,0.0729 1.37304,1.95228 0.65217,1.00875 0.6608,1.01646 1.069,2.0252 0.29541,0.76151 0.50803,1.2637 0.66543,2.0252 0.62292,2.02521 0.22882,0.81379 0.32304,1.21141 0.44053,2.02521 0.29228,2.02521 0.20374,2.0252 0.11989,2.02521 0.003,2.0252 -0.17042,2.02521 -0.35136,2.0252 -0.6755,2.02521 -0.18507,0.34452 -1.11854,1.68068 -0.90666,1.03771 -1.01121,0.9875 -1.014,0.93889 -1.24282,1.08632 -0.78239,0.6456 -1.72299,1.3796 -0.30221,0.21493 -2.02521,1.41008 -0.60403,0.4002 -1.42117,0.9244 -1.60249,1.1008 -0.42272,0.30042 -2.0252,1.62789 -0.10812,0.0969 -1.91709,1.95482 -0.0634,0.0704 -1.69886,2.02521 -0.26295,0.32482 -1.46628,1.70038 -0.55893,0.63224 -1.38164,1.39297 -0.64356,0.56744 -2.02521,1.45218 -0.0102,0.006 -2.01505,0.91847 -2.02521,0.65943 -1.86381,0.44731 -0.1614,0.0347 -2.0252,0.16676 -2.02521,-0.13315 -0.3573,-0.0683 -1.6679,-0.3065 -2.02521,-0.40759 -2.0252,-0.46144 -2.02521,-0.53804 -1.04953,-0.31164 -0.97567,-0.28823 -2.02521,-0.61951 -2.02521,-0.53188 -2.0252,-0.39671 -1.58694,-0.18887 -0.43827,-0.0446 -2.0252,-0.15753 -2.02521,-0.17489 -2.0252,-0.25395 -2.02521,-0.40015 -2.0252,-0.58335 -1.11109,-0.41074 -0.91412,-0.35254 -2.0252,-0.94805 -1.34785,-0.72461 -0.67736,-0.34024 -2.02521,-1.05688 -1.22359,-0.62809 -0.80161,-0.38667 -2.02521,-0.80099 -2.0252,-0.43823 -2.02521,0.0422 -2.0252,0.45131 -2.02521,0.77544 -0.70357,0.35696 -1.32163,0.73247 -2.02521,1.25819 -0.0511,0.0346 -1.97406,1.32649 -1.06498,0.69871 -0.96023,0.62096 -2.02521,1.2011 -0.38835,0.20315 -1.63685,0.90027 -2.02521,0.92591 -0.54793,0.19902 -1.47727,0.58011 -2.02521,0.71928 -2.01431,0.72582 -0.0109,0.004 -2.02521,0.66129 -2.0252,0.58935 -2.02521,0.59944 -0.5322,0.17113 -1.49301,0.49137 -2.0252,0.72142 -2.02521,0.72838 -0.24422,0.084 -1.78098,0.63456 -2.02521,0.7218 -2.0252,0.65648 -0.0489,0.0124 -1.97627,0.48884 -2.0252,0.34505 -2.02521,0.20168 -2.0252,0.0986 -2.02521,-0.0235 -2.02521,-0.13506 -2.0252,-0.2776 z"
     clip-path="url(#p2b18ca2a95)"
     style="fill:none;stroke:#000000;stroke-width:0.8"
     id="path19" />
  <path
     d="m 164.04164,307.87087 -4.05041,-0.47934 -2.0252,-0.31905 -2.02521,-0.44036 -2.73049,-0.82609 -1.31992,-0.52691 -2.89177,-1.4983 -1.15864,-0.7222 -2.02521,-1.46311 -2.0388,-1.8651 -2.01161,-2.32295 -1.14212,-1.72746 -1.07765,-2.02521 -0.80747,-2.0252 -0.65151,-2.02521 -0.44324,-2.0252 -0.27039,-2.02521 -0.0792,-2.0252 0.26959,-4.05041 0.8549,-8.10083 0.42391,-2.0252 1.16485,-4.05041 1.7583,-4.89074 1.3722,-3.21008 4.70342,-10.27369 3.50644,-7.95316 1.75055,-4.05041 0.64203,-2.02521 0.32131,-2.02521 -0.14471,-2.05182 -0.5886,-1.99859 -1.43661,-2.7206 -2.02521,-3.62061 -0.72743,-1.75961 -0.62467,-2.0252 -0.43201,-2.02521 -0.24109,-2.30562 v -2.15315 l 0.0966,-1.61685 0.25322,-2.0252 1.41108,-8.10082 0.1134,-2.02521 -0.13445,-2.0252 -0.37769,-2.02521 -0.55429,-2.02521 -0.80783,-2.28037 -0.8998,-1.77004 -1.29976,-2.0252 -1.85085,-2.66373 -0.85703,-1.38668 -1.16818,-2.23349 -0.74375,-1.81692 -0.50516,-2.02521 -0.21082,-2.0252 -0.2841,-6.07562 -0.48631,-6.07562 0.0309,-2.0252 0.25526,-2.02521 0.42857,-2.0252 0.7172,-2.02521 0.95445,-2.02521 1.86893,-2.69099 2.0252,-2.15059 2.02521,-1.83078 2.0252,-1.51298 2.02521,-1.05589 2.58687,-0.88479 1.46354,-0.29918 2.02521,-0.16217 4.05041,-0.10345 4.05041,-0.41541 4.05041,-0.34202 4.05041,-0.21728 4.18682,-0.4857 3.914,-0.80569 4.05041,-0.92117 4.05041,-0.26706 4.05042,0.0211 2.0252,0.16869 2.02521,0.29507 2.0252,0.47691 2.02521,0.70369 2.0252,1.09327 2.02521,1.50492 6.07562,5.2643 6.07561,5.48085 2.02521,1.09414 2.25271,0.0674 1.7977,-0.57573 2.29433,-1.44948 8.54041,-6.07561 3.3417,-2.07288 2.0252,-1.06611 2.1817,-0.91142 1.86871,-0.62889 2.02521,-0.49952 2.0252,-0.33138 4.05041,-0.36954 4.05042,-0.15053 2.0252,0.12171 2.02521,0.25384 2.0252,0.43777 4.05041,1.24008 4.05041,1.28052 2.79325,0.67114 3.28237,0.56886 12.15123,1.41508 2.02521,0.42043 2.0252,0.52872 3.24164,1.11732 0.80877,0.34871 3.17383,1.6765 0.87659,0.58191 2.0252,1.69271 2.02521,2.51417 2.22213,3.31203 1.02034,2.02521 0.80794,2.17705 0.48219,1.87336 0.26998,2.0252 0.0247,2.02521 -0.37245,4.05041 -0.84564,6.07562 -0.43242,2.0252 -0.61887,2.02521 -1.68149,4.05041 -2.90167,6.45965 -0.59486,1.64117 -1.73284,6.07562 -0.81458,2.0252 -0.99707,2.02521 -3.80452,6.07561 -2.86124,4.05042 -3.37133,4.50849 -0.81941,1.56712 -0.43112,2.02521 0.28752,2.0252 0.96301,2.04985 2.02521,2.60626 6.62253,7.49513 3.08685,4.05041 3.00375,4.05041 1.46331,2.40986 0.85733,1.64055 1.16787,2.81621 0.46742,1.2342 0.61418,2.0252 0.46607,2.02521 0.51535,4.05041 0.61615,6.07562 0.0371,2.0252 -0.19404,2.02521 -0.49701,2.20812 -0.8004,1.84229 -1.26663,2.02521 -1.98338,2.07963 -4.05041,3.30923 -2.02521,1.39863 -5.13111,3.33853 -0.94451,0.68627 -2.0252,1.72176 -2.02521,2.36474 -2.64263,3.32805 -1.79396,2.02521 -2.33123,2.0252 -1.333,0.88867 -2.19989,1.13654 -1.85052,0.73539 -2.0252,0.55778 -2.02521,0.27744 -2.02521,0.0765 -2.0252,-0.13338 -2.02521,-0.41193 -2.94409,-1.10177 -9.20714,-3.49112 -4.05041,-1.24991 -4.05041,-0.89374 -6.07562,-0.97098 -2.0252,-0.44889 -3.07336,-1.04618 -0.97705,-0.41306 -6.74951,-3.63735 -1.35132,-0.54521 -2.0252,-0.41141 -2.02521,0.11924 -2.61936,0.83738 -1.43105,0.66033 -2.39778,1.36487 -6.32577,4.05041 -3.42768,2.25103 -2.02521,1.0648 -4.05041,1.63407 -4.05041,1.44149 -4.05041,1.36423 -6.07562,2.46137 -6.07561,2.47379 -2.02521,0.57693 -2.0252,0.37242 -6.07562,0.50772 -4.05041,0.14746 -2.02521,-0.0792 v 0"
     clip-path="url(#p2b18ca2a95)"
     style="fill:none;stroke:#000000;stroke-width:0.8"
     id="path20" />
  <path
     d="m 151.89041,312.06494 -0.54988,-0.1833 -1.47533,-0.45726 -2.0252,-0.74053 -1.76914,-0.82741 -0.25607,-0.12356 -2.0252,-1.12718 -1.1724,-0.77447 -0.85281,-0.63003 -1.58984,-1.39517 -0.43536,-0.43945 -1.37864,-1.58576 -0.64657,-0.82937 -0.89221,-1.19583 -1.13299,-1.75787 -0.16646,-0.26734 -1.11497,-2.02521 -0.74378,-1.85053 -0.0687,-0.17467 -0.63042,-2.02521 -0.46626,-2.0252 -0.32979,-2.02521 -0.22423,-2.0252 -0.0471,-2.02521 0.0829,-2.0252 0.26157,-2.02521 0.33586,-2.0252 0.37357,-2.02521 0.3464,-2.0252 0.35088,-2.02521 0.0153,-0.0773 0.37299,-1.94786 0.48056,-2.0252 0.55283,-2.02521 0.61598,-2.0252 0.003,-0.008 0.72695,-2.0173 0.76629,-2.0252 0.53196,-1.28364 0.30843,-0.74157 0.88302,-2.0252 0.83376,-1.88516 0.0646,-0.14005 1.01261,-2.02521 0.94802,-1.70077 0.1782,-0.32443 1.20917,-2.02521 0.63784,-1.07366 0.52589,-0.95154 1.10198,-2.02521 0.39733,-0.73675 0.64049,-1.28845 1.04151,-2.02521 0.34321,-0.63271 0.69166,-1.39249 1.04112,-2.02521 0.29242,-0.58783 0.64989,-1.43737 0.73071,-2.02521 0.36862,-2.02521 -0.0997,-2.0252 -0.58265,-2.02521 -1.00321,-2.0252 -0.0637,-0.10552 -1.10568,-1.91969 -0.91952,-1.62735 -0.21118,-0.39785 -0.84648,-2.02521 -0.66476,-2.0252 -0.30279,-1.16584 -0.20534,-0.85937 -0.2652,-2.0252 -0.0522,-2.02521 0.13149,-2.02521 0.29418,-2.0252 0.097,-0.466 0.34722,-1.55921 0.46249,-2.0252 0.34014,-2.02521 0.12305,-2.0252 -0.17683,-2.02521 -0.47514,-2.0252 -0.62093,-1.80473 -0.0861,-0.22048 -0.85542,-2.02521 -1.01562,-2.0252 -0.0681,-0.1153 -1.17307,-1.90991 -0.85214,-1.24708 -0.51874,-0.77812 -1.32885,-2.02521 -0.17761,-0.29809 -0.99507,-1.72711 -0.98618,-2.02521 -0.044,-0.12373 -0.6075,-1.90147 -0.37755,-2.02521 -0.2021,-2.0252 -0.15768,-2.02521 -0.25797,-2.02521 -0.4224,-2.01179 -0.003,-0.0134 -0.51453,-2.02521 -0.50711,-2.0252 -0.39753,-2.02521 -0.20543,-2.0252 -0.027,-2.02521 0.1495,-2.0252 0.27087,-2.02521 0.44014,-2.02521 0.67031,-2.0252 0.12375,-0.31588 0.69594,-1.70933 1.18288,-2.0252 0.14638,-0.19895 1.50251,-1.82626 0.5227,-0.55021 1.47499,-1.47499 0.55021,-0.5227 1.82626,-1.50251 0.19895,-0.14638 2.0252,-1.19742 1.56779,-0.6814 0.45742,-0.1888 2.0252,-0.72184 2.02521,-0.48869 2.02521,-0.2726 2.0252,-0.0871 2.02521,0.005 2.0252,0.0764 2.02521,0.0528 2.0252,-0.0643 2.02521,-0.13668 2.0252,-0.16483 0.69354,-0.0348 1.33167,-0.0676 2.02521,-0.0718 2.0252,-0.0804 2.02521,-0.18761 2.0252,-0.27618 2.02521,-0.42688 2.0252,-0.45313 2.02521,-0.34106 1.75623,-0.12065 0.26897,-0.0158 2.02521,0.0134 0.19776,0.002 1.82744,0.0248 2.02521,-0.024 0.0492,-7.6e-4 1.97597,-0.0296 0.57366,0.0296 1.45154,0.0821 2.02521,0.26503 2.0252,0.52261 2.02521,0.80902 0.58559,0.34643 1.43961,0.85167 1.43674,1.17354 0.58847,0.47666 1.55372,1.54854 0.47148,0.44262 1.56296,1.58259 0.46225,0.43085 1.64917,1.59435 0.37604,0.34604 1.77693,1.67917 0.24827,0.2308 1.99709,1.7944 0.0281,0.0255 2.0252,1.62494 0.6633,0.37476 1.36191,0.79611 2.0252,0.3506 2.02521,-0.48981 1.15513,-0.6569 0.87007,-0.46934 2.02521,-1.4165 0.18925,-0.13937 1.83595,-1.31019 0.98767,-0.71501 1.03754,-0.74599 1.77635,-1.27922 0.24886,-0.18865 2.0252,-1.53547 0.43211,-0.30108 1.5931,-1.23602 1.18633,-0.78919 0.83887,-0.59661 2.02521,-1.20208 0.48273,-0.22651 1.54247,-0.77398 2.02521,-0.72561 2.0252,-0.40562 1.35999,-0.12 0.66522,-0.0569 2.0252,-0.0723 2.02521,-0.0623 2.02521,-0.0599 2.0252,-0.0162 2.02521,0.0668 1.51987,0.2008 0.50533,0.0686 2.02521,0.42516 2.0252,0.63137 2.02521,0.69767 0.62441,0.20244 1.40079,0.43148 2.02521,0.57147 2.02521,0.48281 2.0252,0.42493 0.79846,0.11451 1.22675,0.18092 2.0252,0.26524 2.02521,0.23104 2.0252,0.22539 2.02521,0.16137 2.0252,0.1192 2.02521,0.13867 2.0252,0.17847 2.02521,0.244 1.61426,0.28091 0.41094,0.078 2.02521,0.49701 2.02521,0.7195 1.55501,0.73066 0.47019,0.23213 2.02521,1.19352 0.83173,0.59956 1.19347,0.9857 1.08796,1.0395 0.93725,1.03846 0.85787,0.98675 1.16733,1.58887 0.31927,0.43633 1.25671,2.02521 0.44923,0.89532 0.55715,1.12989 0.7262,2.0252 0.45052,2.02521 0.29133,1.9584 0.0102,0.0668 0.19225,2.02521 0.0522,2.0252 -0.0894,2.02521 -0.16515,1.18551 -0.10986,0.83969 -0.4366,2.02521 -0.53099,2.02521 -0.4938,2.0252 -0.4466,2.02521 -0.007,0.0282 -0.49252,1.99702 -0.63127,2.02521 -0.8012,2.0252 -0.10022,0.21576 -0.85525,1.80945 -1.02167,2.0252 -0.14828,0.27425 -0.91655,1.75096 -1.10572,2.0252 -0.003,0.005 -1.03168,2.0201 -0.90574,2.02521 -0.0878,0.21429 -0.65414,1.81091 -0.72802,2.02521 -0.64305,1.54142 -0.20586,0.48378 -1.00621,2.02521 -0.81313,1.41039 -0.36808,0.61481 -1.37323,2.02521 -0.2839,0.392 -1.156,1.6332 -0.86921,1.19611 -0.57155,0.8291 -1.41364,2.02521 -0.04,0.0575 -1.40935,1.96768 -0.61586,0.97688 -0.75309,1.04833 -1.05032,2.0252 -0.22179,0.9479 -0.26308,1.07731 0.26308,1.87221 0.0222,0.15299 1.03988,2.02521 0.9631,1.23353 0.6542,0.79167 1.37101,1.47954 0.52859,0.54567 1.49661,1.57034 0.43901,0.45486 1.5862,1.7168 0.27662,0.30841 1.69678,2.02521 0.0518,0.0683 1.45483,1.95692 0.57037,0.75932 0.99069,1.26589 1.03452,1.24744 0.69299,0.77776 1.33221,1.58441 0.3874,0.4408 1.51042,2.0252 0.12739,0.21193 1.10417,1.81328 0.92103,1.792 0.12076,0.2332 0.85729,2.02521 0.65495,2.0252 0.39221,1.66855 0.0899,0.35666 0.41877,2.02521 0.456,2.0252 0.50093,2.02521 0.43651,2.0252 0.12306,0.86565 0.17678,1.15956 0.11602,2.0252 0.007,2.02521 -0.16108,2.0252 -0.13897,0.78198 -0.20838,1.24323 -0.66757,2.02521 -1.08574,2.0252 -0.0635,0.0926 -1.35918,1.93259 -0.66603,0.74518 -1.2493,1.28002 -0.7759,0.69526 -1.58571,1.32995 -0.4395,0.35341 -2.0252,1.51707 -0.22094,0.15472 -1.80427,1.19925 -1.3263,0.82596 -0.6989,0.41535 -2.02521,1.23505 -0.57293,0.3748 -1.45228,1.04656 -1.15027,0.97865 -0.87493,0.94169 -0.88457,1.08351 -1.14064,1.61062 -0.30563,0.41459 -1.5905,2.0252 -0.12907,0.1539 -1.7105,1.87131 -0.31471,0.33019 -1.74508,1.69502 -0.28012,0.25242 -2.02521,1.51197 -0.44338,0.26081 -1.58182,0.8483 -2.02521,0.8488 -0.9815,0.32811 -1.0437,0.36576 -2.02521,0.54799 -2.0252,0.28791 -2.02521,-0.0197 -2.02521,-0.27113 -2.0252,-0.42641 -1.79298,-0.48438 -0.23223,-0.0599 -2.0252,-0.80545 -2.02521,-1.11245 -0.0757,-0.0474 -1.94946,-1.16303 -1.5484,-0.86217 -0.47681,-0.24508 -2.0252,-0.97701 -1.93209,-0.80312 -0.0931,-0.0357 -2.02521,-0.70784 -2.0252,-0.64373 -2.02521,-0.61524 -0.0772,-0.0227 -1.94796,-0.55422 -2.02521,-0.50731 -2.0252,-0.43346 -2.02521,-0.39824 -0.64783,-0.13197 -1.37737,-0.27954 -2.02521,-0.56301 -2.0252,-0.79271 -0.78813,-0.38995 -1.23708,-0.65792 -2.02521,-1.21734 -0.25474,-0.14994 -1.77046,-1.05899 -2.02521,-0.8314 -0.83833,-0.13482 -1.18687,-0.20653 -1.89366,0.20653 -0.13155,0.0138 -2.0252,0.69543 -2.02521,1.0276 -0.50253,0.28834 -1.52267,0.89443 -1.79269,1.13077 -0.23252,0.14729 -2.0252,1.31787 -0.81715,0.56005 -1.20806,0.83788 -1.60794,1.18732 -0.41727,0.29405 -2.0252,1.32484 -0.77751,0.40632 -1.2477,0.61151 -2.0252,0.83772 -1.48529,0.57598 -0.53992,0.2076 -2.0252,0.77635 -2.02521,0.78859 -0.65532,0.25266 -1.36988,0.53978 -2.02521,0.83375 -1.48131,0.65168 -0.5439,0.24444 -2.0252,0.94691 -1.68218,0.83385 -0.34303,0.17897 -2.0252,1.0176 -1.73651,0.82864 -0.2887,0.13621 -2.0252,0.80571 -2.02521,0.60869 -2.0252,0.37766 -0.7911,0.0969 -1.23411,0.15303 -2.0252,0.27178 -2.02521,0.33159 -2.02521,0.33722 -2.0252,0.25398 -2.02521,0.12857 -2.0252,0.0271 -2.02521,-0.0165 -2.0252,-0.0738 -2.02521,-0.21111 -2.0252,-0.40598 z"
     clip-path="url(#p2b18ca2a95)"
     style="fill:none;stroke:#000000;stroke-width:0.8"
     id="path21" />
  <path
     d="m 149.8652,318.03926 -2.0252,-0.51815 -2.02521,-0.61109 -2.63392,-0.97797 -3.44169,-1.5795 -2.02521,-1.28146 -2.0252,-1.71745 -2.02521,-2.02656 -2.0252,-2.38617 -0.79548,-1.13488 -1.22973,-2.1789 -0.77732,-1.87151 -0.66969,-2.02521 -0.57819,-2.23513 -0.65757,-3.84049 -0.34066,-4.05041 0.001,-2.0252 0.38079,-4.05041 0.73078,-4.05041 3.21684,-12.15124 1.46049,-4.05041 1.62136,-4.05041 1.83326,-4.05041 2.06774,-4.05041 6.2877,-10.12603 3.59313,-6.07561 0.89359,-2.02521 0.52075,-2.02521 -0.003,-2.0252 -0.53381,-2.02521 -0.95285,-2.0252 -2.16423,-4.05041 -0.85306,-2.02521 -0.90074,-2.9106 -0.28654,-1.13981 -0.29593,-2.0252 -0.0597,-2.02521 0.12315,-2.02521 0.51906,-3.52348 0.46284,-2.55213 0.21993,-2.02521 -0.0731,-2.0252 -0.60963,-2.43423 -0.69875,-1.61618 -2.22436,-4.05042 -2.54801,-4.05041 -2.54067,-4.05041 -0.99176,-2.0252 -0.72101,-2.02521 -0.46026,-2.0252 -1.44167,-8.10083 -0.65385,-2.0252 -1.61857,-4.05041 -0.56662,-2.02521 -0.535,-4.05041 -0.25933,-4.05041 0.0727,-2.02521 0.22774,-2.0252 0.78298,-3.81526 0.0624,-0.23515 0.74715,-2.02521 1.21562,-2.29542 2.0252,-2.7466 2.02521,-2.1418 2.0252,-1.77333 2.02521,-1.43302 2.0252,-1.01361 2.23761,-0.74745 1.8128,-0.36342 2.02521,-0.26768 4.05041,-0.13964 10.12603,0.19288 14.17644,0.002 4.05041,-0.63345 2.0252,-0.29432 2.02521,-0.10549 6.07561,0.32349 6.07562,-0.32803 2.02521,0.25914 2.0252,0.58203 2.02521,0.92446 2.75716,1.8732 2.33091,2.0252 1.97886,2.02521 5.0843,5.30006 2.02521,1.90043 2.0252,1.65285 2.02521,1.17832 2.0252,0.43967 2.02521,-0.41053 2.0252,-1.00788 2.02521,-1.32922 4.9176,-3.67329 7.42246,-6.07562 2.8868,-2.0252 0.97478,-0.64284 2.02521,-0.93144 2.0252,-0.50978 2.02521,-0.14077 4.05041,0.003 6.07562,-0.38903 2.0252,0.0889 3.0635,0.49629 0.98691,0.25332 4.05041,1.45624 4.05042,1.54791 3.09076,0.79294 2.98485,0.52804 4.05041,0.51025 4.05041,0.26429 6.07562,-0.0977 4.05041,0.0531 2.02521,0.22682 2.39473,0.5404 1.65568,0.5561 3.26668,1.4691 2.80893,1.63951 0.56384,0.3857 2.45017,2.0252 1.86157,2.02521 1.46503,2.0252 1.11714,2.02521 0.883,2.0252 0.62426,2.02521 0.46225,2.02521 0.28577,2.0252 0.11216,2.02521 -0.11612,4.05041 -0.35087,4.05041 -0.31142,2.0252 -0.43832,2.02521 -0.58566,2.02521 -3.63452,10.12602 -1.91875,4.05041 -2.46953,4.25043 -3.58251,5.8756 -0.96775,2.02521 -1.94674,4.05041 -1.60382,2.77904 -0.80653,1.27137 -3.24388,4.17194 -2.89295,3.92888 -1.23987,2.02521 -0.85756,2.0252 -0.29193,2.02521 0.43903,2.0252 1.20087,2.02521 1.77966,2.0252 3.89151,4.05041 2.02165,2.36853 4.05041,5.01372 4.4044,4.76899 1.67122,2.34898 2.23165,3.72663 1.0356,2.02521 0.86317,2.0252 2.6523,8.10083 0.5162,2.0252 0.67224,4.05041 0.23878,4.05041 -0.13698,2.02521 -0.29226,2.02521 -0.54167,2.0252 -1.16341,2.65588 -0.89131,1.39453 -1.66438,2.02521 -2.08378,2.0252 -2.61821,2.02521 -3.19673,2.0252 -5.74724,3.45363 -0.85615,0.59678 -1.16905,0.95583 -1.11132,1.06938 -1.6101,2.0252 -4.23419,6.07562 -1.79324,2.02521 -2.30396,2.0252 -1.09843,0.80439 -2.04842,1.22082 -2.00199,0.89874 -2.0252,0.65281 -2.02521,0.48799 -2.0252,0.36741 -2.02521,0.1807 -2.0252,-0.0245 -2.02521,-0.23875 -2.02521,-0.40376 -2.0252,-0.59705 -2.02521,-0.72975 -2.0252,-0.96864 -4.05041,-2.61535 -2.02521,-1.29114 -4.05041,-2.07615 -4.05041,-1.74927 -4.05041,-1.51274 -4.05041,-1.20813 -5.16889,-1.32362 -0.90673,-0.28585 -2.0252,-0.83494 -2.02521,-1.05251 -4.05041,-2.37742 -2.02521,-0.86962 -2.0252,-0.3275 -2.02521,0.31399 -2.0252,0.84019 -2.02521,1.1788 -8.10082,5.49262 -2.99277,1.97266 -1.05764,0.62962 -2.91424,1.39558 -13.3449,6.07562 -6.01812,3.3126 -2.02521,0.98851 -2.0252,0.85526 -2.02521,0.66222 -2.0252,0.4228 -4.05041,0.64313 -6.07562,1.42375 -2.02521,0.28172 -4.05041,0.23644 -4.05041,0.0676 -2.0252,-0.1063 -2.02521,-0.23545 -2.02521,-0.36943 v 0"
     clip-path="url(#p2b18ca2a95)"
     style="fill:none;stroke:#000000;stroke-width:0.8"
     id="path22" />
  <path
     d="m 141.76438,322.12759 -0.38511,-0.11992 -1.64009,-0.58643 -2.02521,-0.81605 -1.41751,-0.62272 -0.60769,-0.30385 -2.02521,-1.20302 -0.74923,-0.51834 -1.27597,-1.01708 -1.15454,-1.00813 -0.87067,-0.84952 -1.09998,-1.17568 -0.92522,-1.062 -0.74592,-0.96321 -1.27929,-1.8355 -0.11382,-0.1897 -0.96234,-2.02521 -0.7841,-2.0252 -0.16495,-0.58247 -0.33617,-1.44274 -0.36656,-2.0252 -0.2832,-2.02521 -0.21904,-2.02521 -0.16569,-2.0252 -0.0913,-2.02521 0.004,-2.0252 0.0794,-2.02521 0.13414,-2.0252 0.19253,-2.02521 0.2537,-2.0252 0.32977,-2.02521 0.38111,-2.0252 0.0877,-0.37007 0.39452,-1.65514 0.54466,-2.0252 0.59189,-2.02521 0.49414,-1.69513 0.093,-0.33008 0.54786,-2.0252 0.56962,-2.02521 0.65166,-2.0252 0.16308,-0.41912 0.61418,-1.60609 0.81499,-2.0252 0.59603,-1.34126 0.28337,-0.68395 1.0489,-2.0252 0.69294,-1.12962 0.47296,-0.89559 1.01937,-2.02521 0.53287,-1.44774 0.26664,-0.57746 0.96592,-2.02521 0.79265,-1.15358 0.58808,-0.87162 1.41512,-2.02521 0.022,-0.0303 1.36015,-1.99488 0.66506,-0.88675 0.78133,-1.13846 1.24387,-1.63488 0.26732,-0.39032 1.43439,-2.02521 0.3235,-0.48676 0.93492,-1.53844 1.0802,-2.02521 0.0101,-0.0268 0.667,-1.99839 0.17976,-2.0252 -0.38745,-2.02521 -0.45931,-1.13088 -0.34078,-0.89432 -0.98434,-2.02521 -0.70008,-1.43898 -0.27871,-0.58622 -0.86752,-2.02521 -0.71423,-2.0252 -0.16475,-0.66453 -0.37338,-1.36068 -0.29905,-2.0252 -0.0652,-2.02521 0.0992,-2.02521 0.19331,-2.0252 0.20148,-2.02521 0.12037,-2.0252 -0.11675,-2.02521 -0.49233,-2.0252 -0.84174,-2.02521 -0.45107,-0.85516 -0.6753,-1.17004 -1.27079,-2.02521 -0.0791,-0.12528 -1.24953,-1.89993 -0.77567,-1.1869 -0.55947,-0.8383 -1.34081,-2.02521 -0.12493,-0.20259 -1.11928,-1.82261 -0.90592,-1.79694 -0.1105,-0.22827 -0.77889,-2.0252 -0.5102,-2.02521 -0.32833,-2.0252 -0.29729,-1.82712 -0.0346,-0.19809 -0.40035,-2.0252 -0.53683,-2.02521 -0.68461,-2.02521 -0.36884,-0.90945 -0.4589,-1.11575 -0.85628,-2.02521 -0.69629,-2.0252 -0.0137,-0.0554 -0.47885,-1.96982 -0.33119,-2.0252 -0.27488,-2.02521 -0.2771,-2.0252 -0.25169,-2.02521 -0.20174,-2.02521 -0.11163,-2.0252 -0.0263,-2.02521 0.15016,-2.0252 0.22777,-2.02521 0.39335,-2.0252 0.61923,-2.02521 0.56288,-1.22245 0.44206,-0.80275 1.31955,-2.02521 0.2636,-0.3709 1.28478,-1.6543 0.74042,-0.88304 1.08019,-1.14217 0.94502,-0.93059 1.26898,-1.09461 0.75622,-0.5833 2.02521,-1.29847 0.26929,-0.14344 1.75591,-0.72967 2.02521,-0.55063 2.0252,-0.25047 2.02521,0.004 2.0252,0.13431 2.02521,0.21153 2.0252,0.23325 2.02521,0.24073 2.02521,0.21367 2.0252,0.10829 2.02521,-0.0305 2.0252,-0.0874 2.02521,-0.071 2.0252,-0.0277 2.02521,0.0207 2.0252,0.0525 2.02521,0.0699 2.02521,0.0517 2.0252,0.004 2.02521,0.005 2.0252,-0.072 2.02521,-0.12062 2.0252,-0.13038 2.02521,-0.0158 2.0252,0.12477 2.02521,0.15997 2.0252,0.0553 2.02521,-0.0962 2.02521,-0.13739 2.0252,-5.3e-4 2.02521,0.24026 1.41655,0.39031 0.60865,0.16861 2.02521,0.87016 1.59503,0.98644 0.43017,0.2649 2.02521,1.51964 0.29715,0.24066 1.72805,1.45054 0.65864,0.57467 1.36657,1.30232 0.72288,0.72288 1.30233,1.40936 0.5492,0.61585 1.476,1.65832 0.32484,0.36688 1.70037,1.78399 0.24892,0.24122 1.77628,1.56454 0.67699,0.46066 1.34822,0.83452 2.0252,0.55155 2.02521,-0.28485 2.0252,-0.93711 0.24966,-0.16411 1.77555,-1.26719 1.02056,-0.75801 1.00464,-0.79454 1.56484,-1.23067 0.46037,-0.37705 1.94673,-1.64815 0.0785,-0.0687 2.0252,-1.816 0.16205,-0.14056 1.86316,-1.65954 0.44654,-0.36566 1.57866,-1.39055 0.80764,-0.63466 1.21757,-1.02621 1.5063,-0.99899 0.5189,-0.3571 2.02521,-0.92867 2.0252,-0.51015 2.01377,-0.22929 0.0114,-10e-4 2.0252,-0.0982 2.02521,-0.12253 2.02521,-0.17561 2.0252,-0.13304 2.02521,-0.0334 2.0252,0.0854 2.02521,0.18953 1.77506,0.28918 0.25014,0.0431 2.02521,0.51509 2.0252,0.72822 1.67899,0.73876 0.34622,0.15356 2.02521,0.94001 2.0252,0.92195 0.0242,0.01 2.00101,0.66368 2.0252,0.5064 2.02521,0.33784 2.0252,0.18452 2.02521,0.0865 2.0252,0.0613 2.02521,0.01 2.0252,0.005 2.02521,-0.0916 2.0252,-0.1639 2.02521,-0.20396 2.02521,-0.1344 2.0252,0.0104 2.02521,0.17545 2.0252,0.3571 0.95374,0.22137 1.07147,0.29472 2.0252,0.66251 2.02521,0.74809 0.72456,0.31988 1.30064,0.67683 2.02521,1.24749 0.1333,0.10089 1.89191,1.5915 0.45363,0.4337 1.57157,1.79337 0.18137,0.23184 1.29837,2.0252 0.54547,1.00169 0.48529,1.02352 0.74986,2.0252 0.56979,2.02521 0.22026,1.0155 0.18734,1.0097 0.30172,2.02521 0.20303,2.02521 0.0579,2.0252 -0.0645,2.02521 -0.17865,2.0252 -0.26093,2.02521 -0.24597,1.58258 -0.0677,0.44262 -0.34537,2.02521 -0.40783,2.0252 -0.45546,2.02521 -0.50773,2.02521 -0.24113,0.79466 -0.37992,1.23054 -0.67897,2.02521 -0.73928,2.0252 -0.22704,0.57388 -0.5652,1.45133 -0.85605,2.0252 -0.60395,1.37777 -0.28437,0.64744 -0.96346,2.0252 -0.77738,1.41238 -0.33528,0.61283 -1.26521,2.0252 -0.42472,0.63837 -0.90433,1.38684 -1.12087,1.68801 -0.2217,0.3372 -1.33859,2.0252 -0.46492,0.74124 -0.79128,1.28397 -1.21,2.0252 -0.0239,0.0372 -1.14732,1.98802 -0.87789,1.36084 -0.38005,0.66436 -1.35201,2.02521 -0.29314,0.38637 -1.19974,1.63883 -0.82547,0.96376 -0.87581,1.06145 -1.14939,1.29558 -0.60867,0.72963 -1.41654,1.7654 -0.19381,0.2598 -1.21445,2.02521 -0.61695,1.71424 -0.10803,0.31096 -0.0149,2.02521 0.12292,0.37357 0.58517,1.65163 1.39064,2.02521 0.0494,0.0541 1.75474,1.97107 0.27047,0.28074 1.64798,1.74447 0.37722,0.41034 1.50476,1.61486 0.52045,0.60689 1.3247,1.41832 0.7005,0.82428 1.17805,1.20093 0.84716,0.91891 1.12252,1.10629 0.90268,0.91613 1.09741,1.10908 0.9278,1.00388 0.88434,1.02132 1.14086,1.5063 0.37245,0.51891 1.33099,2.0252 0.32177,0.52451 0.95099,1.5007 1.07422,1.87386 0.0885,0.15134 1.07368,2.02521 0.86298,1.90393 0.0603,0.12127 0.89335,2.02521 0.82343,2.02521 0.24814,0.67089 0.53215,1.35431 0.76138,2.02521 0.7067,2.0252 0.025,0.0955 0.49921,1.92973 0.35267,2.0252 0.24593,2.02521 0.16915,2.0252 0.0505,2.02521 -0.089,2.02521 -0.2415,2.0252 -0.40056,2.02521 -0.55843,2.0252 -0.0281,0.0661 -0.97362,1.95906 -1.05158,1.62383 -0.29056,0.40137 -1.71207,2.02521 -0.0226,0.0229 -2.0252,1.83674 -0.213,0.16558 -1.81221,1.17794 -1.50254,0.84727 -0.52267,0.26459 -2.0252,0.99088 -1.49735,0.76973 -0.52786,0.26592 -2.0252,1.11878 -1.01759,0.64051 -1.00762,0.6884 -1.66185,1.3368 -0.36335,0.35017 -1.52414,1.67504 -0.50107,0.65178 -1.0017,1.37343 -1.0235,1.54849 -0.316,0.47671 -1.2997,2.02521 -0.40951,0.6134 -1.0194,1.4118 -1.00581,1.30048 -0.61843,0.72473 -1.40677,1.53466 -0.50524,0.49054 -1.51997,1.34381 -0.90255,0.6814 -1.12265,0.74408 -2.02521,1.07252 -0.53506,0.2086 -1.49014,0.48439 -2.02521,0.39804 -2.0252,0.18432 -2.02521,0.10063 -2.0252,0.0979 -2.02521,0.0225 -2.0252,-0.11407 -2.02521,-0.29065 -2.02521,-0.4181 -1.6256,-0.46492 -0.3996,-0.11824 -2.02521,-0.75465 -2.0252,-0.98817 -0.27508,-0.16414 -1.75013,-1.08914 -1.35468,-0.93607 -0.67052,-0.46332 -2.02521,-1.35941 -0.33795,-0.20247 -1.68725,-0.97438 -1.95629,-1.05083 -0.0689,-0.0351 -2.02521,-1.07775 -1.61725,-0.9123 -0.40795,-0.21022 -2.02521,-1.10377 -1.31825,-0.71122 -0.70695,-0.32886 -2.02521,-0.8772 -2.0252,-0.75747 -0.17352,-0.0617 -1.85169,-0.58644 -2.0252,-0.62244 -2.02521,-0.69887 -0.27227,-0.11746 -1.75293,-0.75783 -2.02521,-1.02326 -0.44723,-0.24412 -1.57798,-0.89235 -2.0252,-1.10562 -0.0751,-0.0272 -1.95007,-0.7391 -2.0252,-0.25437 -2.02521,0.39098 -1.33396,0.60249 -0.69124,0.32423 -2.02521,1.32468 -0.54402,0.37629 -1.48118,1.08257 -1.35265,0.94264 -0.67256,0.48805 -2.0252,1.41538 -0.17892,0.12178 -1.84629,1.30375 -1.1296,0.72145 -0.89561,0.59707 -2.0252,1.18895 -0.47088,0.23919 -1.55433,0.85781 -2.0252,1.00201 -0.34158,0.16538 -1.68363,0.92494 -2.0252,1.08348 -0.0343,0.0168 -1.99088,1.0454 -1.9596,0.9798 -0.0656,0.0338 -2.02521,1.05542 -1.74266,0.93594 -0.28255,0.15677 -2.0252,1.18007 -1.24908,0.68836 -0.77613,0.43648 -2.0252,1.01442 -1.308,0.57431 -0.71721,0.31309 -2.0252,0.77714 -2.02521,0.61893 -1.29928,0.31605 -0.72592,0.18992 -2.02521,0.39963 -2.0252,0.41077 -2.02521,0.4795 -2.02521,0.4971 -0.21642,0.0483 -1.80878,0.4081 -2.02521,0.29817 -2.0252,0.15372 -2.02521,0.10572 -2.0252,0.11488 -2.02521,0.12267 -2.0252,0.10055 -2.02521,0.0494 -2.02521,-0.0297 -2.0252,-0.13791 -2.02521,-0.23728 -2.0252,-0.36264 z"
     clip-path="url(#p2b18ca2a95)"
     style="fill:none;stroke:#000000;stroke-width:0.8"
     id="path23" />
  <path
     d="m 143.78959,328.11248 -2.02521,-0.17759 -2.0252,-0.40784 -4.05041,-1.14612 -2.02521,-0.72865 -2.0252,-0.87819 -2.02521,-1.15253 -2.04395,-1.61389 -2.2111,-2.0252 -1.952,-2.02521 -1.89377,-2.46897 -0.89694,-1.58144 -1.12827,-2.44663 -1.16255,-3.62899 -0.46886,-2.0252 -0.2805,-2.02521 -0.0619,-2.0252 0.23915,-4.05042 0.27856,-4.05041 0.21714,-10.12602 0.80696,-4.05041 2.07194,-8.10083 1.79791,-6.07561 1.56538,-4.05041 1.07237,-2.57541 0.72552,-1.475 1.51773,-2.02521 1.80716,-2.3072 0.63278,-1.74321 0.43546,-2.02521 1.00762,-2.0252 3.01467,-4.05041 5.11509,-6.07562 1.94561,-2.85873 0.68123,-1.19168 0.88682,-2.02521 0.43655,-2.0252 -0.0774,-2.02521 -0.52203,-2.0252 -1.40512,-3.38386 -2.08187,-4.71696 -0.63137,-2.02521 -0.34775,-2.0252 -0.11595,-2.02521 0.0347,-6.07562 -0.24711,-2.0252 -0.66103,-2.27354 -0.81983,-1.77687 -2.48516,-4.05041 -5.37029,-8.10083 -1.45074,-2.87982 -0.48832,-1.17059 -0.63215,-2.0252 -1.7726,-8.10082 -2.12003,-6.07562 -1.31277,-4.05041 -0.51204,-2.02521 -0.61046,-4.05041 -0.89504,-8.10082 -0.23338,-2.02521 -0.10463,-4.05041 0.10607,-4.05041 0.47452,-2.64341 0.48804,-1.407 1.53717,-2.88717 0.75239,-1.16324 1.48933,-2.0252 1.80869,-2.09732 2.02521,-2.01704 2.40737,-1.96126 1.64304,-0.99377 2.0252,-0.79225 2.02521,-0.36191 2.0252,-0.14744 2.02521,0.0286 4.05041,0.36097 6.07561,0.62733 6.07562,0.87303 2.02521,0.043 6.07561,-0.26901 4.05041,0.27197 4.05042,0.25652 8.10082,0.18791 4.05041,1.1e-4 4.05041,0.31498 4.05041,0.004 4.05041,-0.0413 2.02521,0.1591 2.0252,0.36359 2.02521,0.68295 2.0252,1.02036 2.12258,1.4615 3.95304,3.18653 2.92145,2.88909 1.80958,2.0252 1.74789,2.02521 1.97449,2.0252 1.67262,1.27707 2.0252,0.72356 2.02521,-0.15856 2.0252,-0.97406 4.05041,-2.98673 2.30911,-1.93169 3.76651,-3.58466 0.49364,-0.46575 3.96532,-4.05041 1.61666,-1.38571 2.0252,-1.1256 2.02521,-0.62397 4.05041,-0.58287 4.05041,-0.58171 2.02521,-0.33536 2.0252,-0.15479 2.02521,0.047 4.05041,0.39002 4.05041,0.59769 2.0252,0.48311 2.02521,0.65005 2.02521,0.82335 6.07561,3.01691 2.26599,0.80705 1.78442,0.36071 2.02521,0.19225 4.05041,0.03 2.0252,-0.11587 2.98522,-0.4671 5.11561,-1.22525 2.0252,-0.21869 2.02521,-0.0279 2.0252,0.19509 6.07562,1.02393 2.0252,0.41552 2.02521,0.73412 2.09595,1.12839 3.97967,2.73318 2.0252,1.80015 1.38224,1.54229 1.34337,2.0252 1.3248,2.69974 0.46219,1.35067 0.56452,2.02521 0.39861,2.0252 0.47045,4.05041 0.14387,4.05042 -0.0528,2.0252 -0.17803,2.02521 -0.31132,2.0252 -2.33432,10.12603 -1.07226,4.05041 -1.34599,4.05041 -1.66904,4.05041 -1.86611,4.05041 -1.31063,2.44083 -2.0252,3.10782 -7.39341,10.653 -6.78303,8.59686 -3.05811,3.55437 -1.33312,2.02521 -0.67561,2.0252 0.0658,2.02521 0.95067,2.24025 1.29628,1.81016 3.81801,4.05041 2.98653,2.93481 6.07561,5.53287 2.02521,2.10551 2.02521,2.61837 2.07249,3.01008 2.46044,4.05041 2.15884,4.05041 2.70726,6.07562 1.54113,4.05041 0.54373,2.02521 0.34571,2.0252 0.25092,4.05041 0.25659,8.10083 -0.18588,2.05076 -0.35824,1.99965 -0.76032,2.0252 -1.24126,2.02521 -1.72604,2.0252 -2.00111,2.02521 -2.51825,2.0252 -1.52081,0.93799 -2.0252,1.09634 -6.07562,2.79661 -2.15522,1.24468 -2.39864,2.02521 -1.69231,2.0252 -2.65744,4.05041 -3.24762,5.28354 -2.02521,2.50307 -2.02521,1.97021 -2.0252,1.52946 -2.02521,1.13302 -2.0252,0.81915 -2.02521,0.58825 -2.0252,0.29133 -2.02521,0.0428 -12.15123,-0.87316 -2.02521,-0.37335 -2.58744,-0.76305 -1.46297,-0.51147 -3.22441,-1.51374 -3.51689,-2.02521 -9.51442,-6.07561 -6.13667,-4.05041 -3.93528,-1.90611 -2.0252,-0.83997 -4.05041,-1.77137 -6.07562,-2.96151 -2.37934,-0.62187 -1.67107,-0.0966 -2.02521,0.44137 -2.0252,1.00275 -2.02521,1.40053 -10.12603,7.55803 -10.12602,6.05659 -6.65031,3.8894 -3.47572,2.14615 -2.02521,1.0478 -4.05041,1.65988 -4.05041,1.38111 -2.0252,0.63333 -2.02521,0.4855 -6.07562,1.19572 -4.05041,0.87132 -2.0252,0.23465 -4.05041,0.11894 -6.07562,0.0327 -6.07562,0.39421 -2.0252,-0.0461 v 0"
     clip-path="url(#p2b18ca2a95)"
     style="fill:none;stroke:#000000;stroke-width:0.8"
     id="path24" />
  <path
     d="m 133.66356,332.23105 -4.05041,-1.18254 -2.0252,-1.01453 -3.17399,-1.95069 -0.87643,-0.59948 -2.0252,-1.61822 -2.02521,-1.88746 -2.0252,-2.36869 -1.06471,-1.62697 -0.98963,-2.02521 -0.86113,-2.02521 -1.29721,-4.05041 -0.56189,-2.0252 -0.44118,-2.02521 -0.23189,-2.0252 0.0121,-2.02521 0.50502,-4.05041 1.1576,-6.07562 0.0968,-2.0252 -0.16796,-8.10082 0.25815,-2.02521 0.89428,-4.05041 2.1969,-8.10082 1.35096,-4.05041 1.56836,-4.05041 1.86826,-4.05041 1.7828,-3.28826 1.69061,-2.78736 1.06217,-2.02521 1.29764,-2.1994 2.76585,-3.87621 1.71237,-2.02521 3.79046,-4.05041 1.85734,-2.28772 1.18982,-1.76269 1.13477,-2.02521 0.76307,-2.0252 0.27711,-2.02521 -0.21817,-2.0252 -0.61405,-2.02521 -0.90941,-2.0252 -2.00471,-4.05041 -0.64157,-2.02521 -0.35907,-2.0252 -0.64299,-6.56986 -0.26984,-1.53097 -0.59356,-2.0252 -1.16181,-2.43381 -2.0252,-3.15556 -4.60627,-6.56187 -1.46935,-2.42889 -1.79736,-3.64672 -0.79126,-2.02521 -5.79511,-18.22685 -0.87157,-4.05041 -0.57687,-4.05041 -0.4516,-4.05041 -1.24294,-8.10082 -0.36786,-4.05041 -0.0507,-4.05041 0.15795,-2.02521 0.372,-2.0252 0.65599,-2.02521 0.98343,-2.0252 2.77002,-4.05042 1.51367,-2.0252 1.83744,-2.02521 2.46484,-2.0252 1.18993,-0.82595 2.02523,-1.19926 2.02518,-1.02229 2.02521,-0.50647 2.0252,-0.15805 2.02521,-0.0233 2.0252,0.09 2.02521,0.21923 8.10082,1.44143 10.12603,1.19582 8.10082,0.3839 4.05041,0.44187 4.05041,0.14282 8.10082,0.0675 2.02521,0.12686 6.07561,0.68933 6.07562,0.0604 4.05041,0.16382 2.02521,0.2951 2.0252,0.62007 2.02521,1.08923 2.0252,1.53582 3.24065,3.27291 1.84408,2.02521 1.73496,2.0252 3.50257,4.05041 1.82898,1.62748 2.0252,0.91902 2.02521,-0.0367 2.0252,-0.86108 2.46488,-1.64871 2.42282,-2.0252 2.02034,-2.02521 7.14245,-8.10082 0.12595,-0.11982 2.02521,-1.43149 2.0252,-0.9384 2.02521,-0.57181 6.07561,-1.1087 4.05042,-0.66316 2.0252,-0.14854 4.05041,0.0992 4.05041,0.30196 3.33822,0.53031 0.71219,0.13702 2.02521,0.51472 2.02521,0.63578 2.0252,0.84716 2.02521,1.00636 5.08016,2.93457 0.99545,0.44494 2.02521,0.57648 2.0252,0.20378 2.02521,-0.0908 2.0252,-0.35439 4.05041,-1.31587 2.02521,-0.63932 2.02521,-0.4988 4.05041,-0.59876 2.0252,-0.0683 4.05041,0.19095 4.05041,0.43054 2.02521,0.31369 2.02521,0.53353 2.09699,0.87238 1.95342,0.96305 2.0252,1.26469 2.31729,1.82268 2.149,2.0252 1.88548,2.02521 1.74905,2.45363 0.84727,1.59678 0.7266,2.0252 1.05523,4.05041 0.80032,4.05041 0.18938,2.02521 0.0568,4.05041 -0.20734,4.05041 -0.2729,2.02521 -0.40382,2.0252 -3.82565,14.17644 -1.39524,4.05041 -1.7225,4.05041 -3.1097,6.07562 -1.18757,2.0252 -1.67686,2.50792 -2.74437,3.5677 -3.33125,4.07194 -4.05041,4.88646 -8.10082,9.73595 -1.05601,1.55771 -0.75085,2.0252 0.0415,2.02521 0.85025,2.0252 1.53298,2.02521 1.94256,2.0252 3.51514,3.27184 4.05041,3.48305 3.91712,3.37114 2.1585,2.18431 3.41912,3.89131 2.91483,4.05041 2.3147,4.05041 1.96986,4.05041 1.83258,4.05041 0.77418,2.02521 1.14471,4.05041 0.4164,2.0252 0.2573,2.02521 0.31618,4.05041 0.44964,4.05041 0.0616,4.05041 -0.11767,2.02521 -0.33027,2.0252 -0.62773,2.02521 -0.97208,2.0252 -1.67212,2.32662 -2.0252,2.18028 -2.02521,1.80947 -2.50786,1.78445 -1.54255,0.91952 -4.05041,1.9623 -4.05041,1.87399 -2.42839,1.31981 -1.62202,1.19169 -0.86286,0.83352 -1.67764,2.0252 -1.50991,2.25775 -4.49124,7.86828 -1.58438,2.1894 -2.0252,2.06033 -2.57135,1.82589 -1.47907,0.84653 -2.84797,1.17867 -1.20244,0.45944 -2.0252,0.55898 -2.02521,0.31045 -2.0252,0.001 -2.02521,-0.28247 -6.07561,-1.19473 -8.10083,-1.10125 -3.21794,-0.77673 -0.83247,-0.25651 -2.0252,-0.82131 -4.05041,-2.05097 -4.05041,-2.41335 -4.05042,-2.87967 -10.58576,-7.77984 -3.59067,-2.08222 -8.10083,-4.15669 -2.0252,-0.77874 -2.02521,-0.43369 -2.0252,0.0461 -2.02521,0.59251 -2.0252,1.15143 -2.12081,1.61093 -5.98001,4.97014 -4.05042,2.89355 -4.05041,2.71077 -14.60167,9.6776 -3.82118,2.0252 -3.85441,1.66652 -4.05041,1.37556 -4.09354,1.00833 -12.1081,2.28383 -2.02521,0.17784 -4.05041,-5.5e-4 -2.0252,-0.0123 -2.02521,0.11084 -6.07562,0.65625 -4.05041,0.12982 -2.0252,-0.13302 -4.05041,-0.65363 -2.02521,-0.43656 v 0"
     clip-path="url(#p2b18ca2a95)"
     style="fill:none;stroke:#000000;stroke-width:0.8"
     id="path25" />
  <path
     d="m 129.61315,338.39659 -0.79346,-0.18728 -1.23174,-0.30435 -2.02521,-0.60189 -2.02521,-0.78925 -0.64533,-0.32971 -1.37987,-0.72601 -2.02521,-1.22871 -0.10432,-0.0705 -1.92088,-1.44427 -0.68679,-0.58093 -1.33842,-1.25476 -0.78019,-0.77045 -1.24501,-1.29415 -0.64856,-0.73105 -1.37665,-1.76019 -0.18496,-0.26502 -1.18223,-2.0252 -0.65801,-1.32025 -0.33314,-0.70496 -0.77387,-2.0252 -0.61206,-2.02521 -0.30614,-1.18975 -0.20586,-0.83546 -0.42975,-2.0252 -0.35707,-2.02521 -0.32227,-2.0252 -0.10479,-2.02521 0.17443,-2.0252 0.35542,-2.02521 0.39676,-2.0252 0.41448,-2.02521 0.0787,-0.30713 0.42822,-1.71808 0.56302,-2.0252 0.45191,-2.02521 0.22069,-2.0252 0.0281,-2.02521 -0.0622,-2.0252 -0.0208,-2.02521 0.0563,-2.0252 0.20111,-2.02521 0.15889,-0.93618 0.17493,-1.08902 0.4525,-2.02521 0.51918,-2.0252 0.54738,-2.02521 0.33121,-1.04823 0.29032,-0.97698 0.64424,-2.0252 0.71037,-2.02521 0.38028,-0.96372 0.38654,-1.06148 0.77614,-2.02521 0.84301,-2.0252 0.0195,-0.0407 0.88178,-1.98452 1.11416,-2.0252 0.0293,-0.0459 1.14324,-1.97929 0.88196,-1.36597 0.37803,-0.65924 1.15369,-2.0252 0.49349,-0.82432 0.65753,-1.20089 1.24318,-2.0252 0.12449,-0.18578 1.15704,-1.83943 0.86817,-1.23639 0.53247,-0.78881 1.49274,-1.93726 0.0694,-0.088 1.77117,-2.0252 0.18463,-0.19409 1.76661,-1.83112 0.2586,-0.26136 1.70001,-1.76384 0.32519,-0.34522 1.40649,-1.67999 0.61872,-0.794 0.79723,-1.23121 1.14015,-2.0252 0.0878,-0.22295 0.5014,-1.80226 0.0461,-2.0252 -0.43168,-2.02521 -0.11581,-0.2719 -0.90381,-1.7533 -1.01821,-2.02521 -0.10318,-0.24365 -0.86641,-1.78155 -0.54719,-2.02521 -0.29883,-2.0252 -0.21737,-2.02521 -0.0954,-0.7425 -0.24602,-1.28271 -0.50935,-2.0252 -0.67909,-2.02521 -0.59074,-1.3638 -0.37404,-0.6614 -1.25749,-2.02521 -0.39368,-0.58094 -1.09697,-1.44426 -0.92823,-1.25133 -0.6255,-0.77388 -1.39971,-1.89643 -0.0997,-0.12877 -1.4157,-2.02521 -0.50982,-0.83648 -0.73713,-1.18873 -1.04557,-2.0252 -0.2425,-0.52016 -0.74926,-1.50505 -0.84932,-2.0252 -0.42663,-1.1316 -0.38243,-0.89361 -0.75901,-2.0252 -0.73481,-2.02521 -0.14895,-0.38531 -0.69947,-1.63989 -0.78439,-2.02521 -0.54135,-1.49132 -0.21127,-0.53388 -0.73112,-2.02521 -0.6472,-2.02521 -0.43561,-1.54352 -0.14356,-0.48168 -0.52569,-2.02521 -0.43017,-2.0252 -0.4021,-2.02521 -0.38379,-2.0252 -0.1399,-0.88856 -0.19538,-1.13665 -0.32315,-2.0252 -0.37583,-2.02521 -0.4786,-2.02521 -0.48718,-2.0252 -0.16506,-0.75762 -0.29187,-1.26759 -0.41995,-2.0252 -0.44218,-2.02521 -0.43498,-2.0252 -0.32153,-2.02521 -0.1147,-0.90141 -0.14012,-1.12379 -0.0824,-2.02521 -2e-4,-2.0252 0.20428,-2.02521 0.0185,-0.0869 0.44158,-1.93834 0.72903,-2.02521 0.8546,-1.77432 0.13165,-0.25089 1.15188,-2.0252 0.74167,-1.1559 0.57143,-0.86931 1.44404,-2.0252 0.01,-0.0123 1.62699,-2.01294 0.39821,-0.4359 1.58931,-1.5893 0.4359,-0.39821 2.0252,-1.61463 0.0174,-0.0124 2.00784,-1.29496 1.3587,-0.73024 0.6665,-0.33314 2.02521,-0.79444 2.02521,-0.58167 1.61141,-0.31596 0.41379,-0.0786 2.02521,-0.10911 2.0252,0.0682 0.97837,0.1195 1.04684,0.13015 2.0252,0.32456 2.02521,0.45783 2.0252,0.57293 1.69458,0.53974 0.33063,0.10217 2.0252,0.58335 2.02521,0.53281 2.0252,0.48603 1.5229,0.32084 0.50231,0.096 2.02521,0.31519 2.0252,0.28726 2.02521,0.28157 2.0252,0.27135 2.02521,0.25588 2.0252,0.26827 1.60391,0.24973 0.4213,0.0546 2.0252,0.2566 2.02521,0.14933 2.02521,0.0128 2.0252,-0.11576 2.02521,-0.13721 2.0252,-0.11804 2.02521,-0.0407 2.0252,0.023 2.02521,0.14262 2.0252,0.29275 2.02521,0.36867 2.0252,0.32594 2.02521,0.23809 2.02521,0.13467 2.0252,0.0534 2.02521,0.0196 2.0252,0.0495 2.02521,0.17983 0.61587,0.13548 1.40933,0.27625 2.02521,0.75584 1.57752,0.99312 0.44768,0.2945 1.89546,1.7307 0.12975,0.12679 1.6389,1.89842 0.38631,0.45571 1.28481,1.56949 0.74039,0.90312 0.93806,1.12209 1.08715,1.38294 0.52471,0.64227 1.50049,1.95264 0.0643,0.0726 1.96087,2.01138 0.0204,0.0138 2.00483,1.07082 2.02521,0.11184 2.0252,-0.7696 0.64306,-0.41306 1.38215,-1.06318 1.0767,-0.96203 0.9485,-0.97099 0.93616,-1.05421 1.08905,-1.26029 0.61091,-0.76492 1.4143,-1.65646 0.29648,-0.36875 1.72872,-2.01174 0.0115,-0.0135 1.82162,-2.02521 0.19206,-0.20217 2.0252,-1.76532 0.0854,-0.0577 1.93986,-1.37093 1.28545,-0.65428 0.73975,-0.42906 2.02521,-0.75914 2.0252,-0.49038 1.94501,-0.34662 0.0802,-0.0158 2.0252,-0.34434 2.02521,-0.35893 2.02521,-0.31301 2.0252,-0.23752 2.02521,-0.11819 2.0252,-0.002 2.02521,0.10376 2.0252,0.14379 2.02521,0.21101 2.0252,0.29577 2.02521,0.40819 0.89193,0.22685 1.13328,0.28559 2.0252,0.64523 2.02521,0.88803 0.34424,0.20635 1.68096,1.0066 1.46362,1.01861 0.56159,0.38917 2.0252,1.36707 0.44963,0.26896 1.57558,0.79526 2.0252,0.54786 2.02521,0.0376 2.0252,-0.38372 2.02521,-0.66511 0.88974,-0.33191 1.13546,-0.47521 2.02521,-0.72121 2.02521,-0.57806 1.07179,-0.25072 0.95341,-0.25167 2.02521,-0.41658 2.0252,-0.35335 2.02521,-0.35635 2.0252,-0.37105 2.02521,-0.23658 0.75301,-0.0396 1.27219,-0.0671 0.80967,0.0671 1.21554,0.10666 2.02521,0.29501 2.0252,0.46011 2.02521,0.57836 1.60607,0.58507 0.41913,0.16091 2.02521,0.87162 1.89777,0.99267 0.12743,0.0739 2.02521,1.33367 0.77336,0.6176 1.25184,1.09657 0.95075,0.92863 1.07446,1.10067 0.84235,0.92454 1.18285,1.42576 0.46624,0.59945 1.32037,2.0252 0.2386,0.42032 0.83649,1.60489 0.7843,2.0252 0.40442,1.42185 0.1614,0.60336 0.44705,2.0252 0.32888,2.02521 0.3721,2.0252 0.40544,2.02521 0.31033,1.76652 0.0443,0.25868 0.14198,2.02521 -0.0178,2.0252 -0.16851,1.55242 -0.0529,0.47279 -0.35624,2.02521 -0.45633,2.0252 -0.46732,2.02521 -0.4954,2.0252 -0.19697,0.64566 -0.40729,1.37955 -0.6569,2.0252 -0.67253,2.02521 -0.28849,0.78414 -0.4401,1.24106 -0.67327,2.02521 -0.64108,2.02521 -0.27076,0.80847 -0.37496,1.21673 -0.69233,2.02521 -0.78337,2.0252 -0.17454,0.39887 -0.66392,1.62634 -0.95382,2.0252 -0.40747,0.7445 -0.65012,1.28071 -1.1243,2.0252 -0.25078,0.40364 -0.90598,1.62157 -1.11923,1.77524 -0.14936,0.24996 -1.28622,2.02521 -0.58962,0.83369 -0.79359,1.19152 -1.23162,1.6945 -0.24277,0.3307 -1.66187,2.02521 -0.12056,0.1321 -1.74504,1.8931 -0.28017,0.28812 -1.61823,1.73709 -0.40697,0.42276 -1.44302,1.60244 -0.58219,0.62744 -1.22643,1.39777 -0.79878,0.88905 -0.97685,1.13615 -1.04835,1.19298 -0.68985,0.83223 -1.33536,1.52774 -0.42098,0.49747 -1.60422,1.79107 -0.19629,0.23413 -1.43684,2.02521 -0.39208,0.91082 -0.4012,1.11438 0.0853,2.02521 0.31589,0.71552 0.7063,1.30968 1.31891,1.58127 0.4284,0.44394 1.5968,1.4866 0.58613,0.5386 1.43908,1.28757 0.81952,0.73764 1.20568,1.02656 1.16749,0.99864 0.85772,0.69292 1.53239,1.33229 0.49282,0.40937 1.78435,1.61584 0.24085,0.2139 1.99626,1.8113 0.0289,0.0276 2.0252,1.81833 0.20134,0.17932 1.82387,1.7372 0.30352,0.288 1.72168,1.77534 0.24531,0.24987 1.70108,2.0252 0.0788,0.11244 1.3094,1.91277 0.7158,1.2579 0.45066,0.7673 1.06952,2.02521 0.50503,0.97595 0.56399,1.04925 0.98082,2.02521 0.48039,1.036 0.46541,0.98921 0.87854,2.0252 0.68126,1.78576 0.0964,0.23945 0.68616,2.0252 0.5601,2.02521 0.43088,2.0252 0.25165,1.50684 0.0919,0.51837 0.31028,2.0252 0.37584,2.02521 0.44352,2.02521 0.47422,2.0252 0.32942,1.71869 0.0588,0.30652 0.20018,2.0252 -0.0104,2.02521 -0.17071,2.0252 -0.0778,0.4138 -0.31246,1.61141 -0.5596,2.0252 -0.81488,2.02521 -0.33826,0.60095 -0.81705,1.42425 -1.20816,1.80095 -0.16549,0.22426 -1.73513,2.0252 -0.12459,0.11663 -2.0252,1.63115 -0.3881,0.27743 -1.63711,1.01898 -1.78702,1.00623 -0.23818,0.12867 -2.02521,1.00952 -1.85758,0.88701 -0.16762,0.0784 -2.02521,0.86401 -2.0252,0.82445 -0.56128,0.25835 -1.46393,0.68255 -2.0252,1.13673 -0.32193,0.20592 -1.70328,1.20932 -0.94714,0.81589 -1.07807,1.13791 -0.6872,0.88729 -1.23725,2.02521 -0.10075,0.18758 -0.94709,1.83762 -0.94574,2.02521 -0.13238,0.29653 -0.80306,1.72868 -0.95274,2.0252 -0.2694,0.47801 -0.94894,1.5472 -1.07627,1.40953 -0.53046,0.61567 -1.49474,1.51043 -0.60339,0.51478 -1.42182,1.11193 -1.49184,0.91327 -0.53336,0.30582 -2.02521,0.88177 -2.02521,0.68989 -0.49603,0.14773 -1.52917,0.4328 -2.02521,0.42551 -2.0252,0.26635 -2.02521,-0.005 -2.0252,-0.2779 -2.02521,-0.47532 -1.24798,-0.36598 -0.77722,-0.23108 -2.02521,-0.66433 -2.0252,-0.62273 -2.02521,-0.48876 -0.077,-0.0183 -1.94817,-0.39879 -2.02521,-0.41076 -2.02521,-0.43053 -2.0252,-0.47673 -1.04618,-0.30839 -0.97903,-0.25679 -2.0252,-0.68358 -2.02521,-0.88311 -0.39121,-0.20173 -1.63399,-0.79224 -2.02521,-1.17413 -0.0875,-0.0588 -1.93767,-1.20105 -1.14336,-0.82416 -0.88185,-0.60145 -1.87712,-1.42375 -0.14809,-0.10916 -2.0252,-1.5466 -0.46815,-0.36945 -1.55706,-1.13888 -1.19831,-0.88633 -0.82689,-0.57268 -1.91955,-1.45252 -0.10566,-0.0793 -2.0252,-1.65899 -0.32977,-0.28689 -1.69544,-1.33398 -0.87495,-0.69122 -1.15025,-0.75978 -1.76138,-1.26543 -0.26383,-0.15615 -2.0252,-1.26226 -0.89175,-0.60679 -1.13346,-0.59651 -2.02521,-1.03952 -0.90901,-0.38918 -1.11619,-0.3709 -2.02521,-0.24932 -2.0252,0.26887 -0.89113,0.35135 -1.13408,0.60272 -2.0252,1.39644 -0.0324,0.026 -1.99285,1.70267 -0.3846,0.32253 -1.6406,1.37978 -0.81851,0.64543 -1.2067,0.97115 -1.40797,1.05405 -0.61723,0.50078 -2.02521,1.51669 -0.0107,0.008 -2.01448,1.60247 -0.57676,0.42273 -1.44844,1.16921 -1.14367,0.856 -0.88154,0.7228 -1.75472,1.30241 -0.27048,0.2218 -2.02521,1.5053 -0.42773,0.2981 -1.59747,1.07637 -1.54377,0.94884 -0.48144,0.30313 -2.0252,1.27093 -0.70176,0.45114 -1.32345,0.8993 -1.80777,1.12591 -0.21744,0.14854 -2.0252,1.23368 -1.17894,0.64298 -0.84627,0.49288 -2.0252,0.99019 -1.31514,0.54214 -0.71007,0.30503 -2.0252,0.70597 -2.02521,0.57276 -1.82282,0.44144 -0.20238,0.0544 -2.02521,0.50728 -2.0252,0.50392 -2.02521,0.47572 -2.02521,0.4404 -0.2425,0.0434 -1.7827,0.32932 -2.02521,0.36642 -2.0252,0.31138 -2.02521,0.2194 -2.0252,0.12922 -2.02521,0.0749 -2.0252,0.13628 -2.02521,0.22958 -1.86817,0.22869 -0.15704,0.0195 -2.0252,0.17415 -2.02521,0.15071 -2.0252,0.14391 -2.02521,0.16822 -2.0252,0.14406 -2.02521,0.0684 -2.0252,-0.001 -2.02521,-0.0895 -2.0252,-0.20198 z"
     clip-path="url(#p2b18ca2a95)"
     style="fill:none;stroke:#000000;stroke-width:0.8"
     id="path26" />
  <path
     clip-path="url(#p2b18ca2a95)"
     style="fill:none;stroke:#000000;stroke-width:0.8"
     id="path27"
     d="" />
  <defs
     id="defs27">
    <clipPath
       id="p2b18ca2a95">
      <rect
         x="0"
         y="-0"
         width="443.52"
         height="443.52"
         id="rect27" />
    </clipPath>
  </defs>
</svg>
