<?xml version="1.0" encoding="UTF-8"?>
<!--
Editable bowl profile reference (units in mm).
The script reads these ids directly:
  - outer_profile (closed path)
  - interior_cavity_profile (closed path)
  - contour_mapping_profile (open path)
  - foot_ridge_profile (open polyline, optional)
-->
<svg xmlns="http://www.w3.org/2000/svg" width="1320" height="700" viewBox="-10 -8 110 44">
  <defs>
    <style>
      .guide { stroke: #9aa0a6; stroke-width: 0.22; fill: none; stroke-dasharray: 0.9 0.9; vector-effect: non-scaling-stroke; }
      .outer { stroke: #0b57d0; stroke-width: 0.55; fill: none; vector-effect: non-scaling-stroke; }
      .inner { stroke: #0f9d58; stroke-width: 0.55; fill: none; vector-effect: non-scaling-stroke; }
      .mapping { stroke: #c26401; stroke-width: 0.5; fill: none; stroke-dasharray: 1.4 1; vector-effect: non-scaling-stroke; }
      .foot { stroke: #8e24aa; stroke-width: 0.45; fill: none; vector-effect: non-scaling-stroke; }
      .label { font-size: 1.8px; fill: #444; font-family: ui-monospace, Menlo, monospace; }
    </style>
  </defs>

  <!-- model space: +X right (radius), +Y up (height) -->
  <g id="model_space" transform="translate(0 28) scale(1 -1)">
    <line class="guide" x1="0" y1="-7" x2="0" y2="30"/>
    <line class="guide" x1="-2" y1="0" x2="92" y2="0"/>
    <line class="guide" x1="-2" y1="24" x2="92" y2="24"/>
    <line class="guide" x1="85" y1="-7" x2="85" y2="30"/>

    <!-- Optional foot ridge reference -->
    <polyline id="foot_ridge_profile" class="foot" points="26,0 26,-5 30,-5 30,0"/>

    <!-- Outer bowl profile (closed). Uses smooth cubic Beziers. -->
    <path
      id="outer_profile"
      class="outer"
      d="M 0,0
         L 30,0
         C 34,0.2 38,0.9 42,2.2
         C 52,5.0 63,8.8 73,10.5
         C 77.5,13.8 80.0,16.6 81,18
         C 83.2,20.8 84.3,22.8 85,24
         L 0,24
         Z"/>

    <!-- Interior cavity cut profile (closed). Also smooth Beziers. -->
    <path
      id="interior_cavity_profile"
      class="inner"
      d="M 0,3
         C 14,3.1 24,4.0 33,5.6
         C 45,8.2 56,12.4 67,16.8
         C 74,19.9 79,22.8 82.3,26
         L 0,26
         Z"/>

    <!-- Layer mapping path (open): start near rim, end near foot -->
    <path
      id="contour_mapping_profile"
      class="mapping"
      d="M 77,23
         C 74,18.5 71,13.5 67,9
         C 60,5.8 53,4.6 46,4.5
         C 43,3.3 40,2.2 36,0.8"/>
  </g>

  <text class="label" x="2" y="3">Editable Profile Curves (mm)</text>
  <text class="label" x="2" y="6">Blue: outer_profile, Green: interior_cavity_profile, Orange: contour_mapping_profile, Purple: foot_ridge_profile</text>
</svg>
